<?xml version="1.0" encoding="UTF-8" standalone="no"?>
<!DOCTYPE svg PUBLIC "-//W3C//DTD SVG 1.1//EN"
 "http://www.w3.org/Graphics/SVG/1.1/DTD/svg11.dtd">
<!-- Generated by graphviz version 15.1.1 (20260805.0921)
 -->
<!-- Title: ast Pages: 1 -->
<svg width="511pt" height="544pt"
 viewBox="0.00 0.00 511.00 544.00" xmlns="http://www.w3.org/2000/svg" xmlns:xlink="http://www.w3.org/1999/xlink">
<g id="graph0" class="graph" transform="scale(1 1) rotate(0) translate(4 540)">
<title>ast</title>
<polygon fill="white" stroke="none" points="-4,4 -4,-540 506.95,-540 506.95,4 -4,4"/>
<!-- Node0 -->
<g id="node1" class="node">
<title>Node0</title>
<ellipse fill="none" stroke="black" cx="144" cy="-518" rx="43.16" ry="18"/>
<text xml:space="preserve" text-anchor="middle" x="144" y="-512.95" font-family="Times,serif" font-size="14.00">Program</text>
</g>
<!-- Node1 -->
<g id="node2" class="node">
<title>Node1</title>
<ellipse fill="none" stroke="black" cx="144" cy="-445" rx="39.07" ry="18"/>
<text xml:space="preserve" text-anchor="middle" x="144" y="-439.95" font-family="Times,serif" font-size="14.00">FunDef</text>
</g>
<!-- Node0&#45;&gt;Node1 -->
<g id="edge24" class="edge">
<title>Node0&#45;&gt;Node1</title>
<path fill="none" stroke="black" d="M144,-499.81C144,-492.23 144,-483.1 144,-474.54"/>
<polygon fill="black" stroke="black" points="147.5,-474.54 144,-464.54 140.5,-474.54 147.5,-474.54"/>
</g>
<!-- Node2 -->
<g id="node3" class="node">
<title>Node2</title>
<ellipse fill="none" stroke="black" cx="27" cy="-356.5" rx="27" ry="18"/>
<text xml:space="preserve" text-anchor="middle" x="27" y="-351.45" font-family="Times,serif" font-size="14.00">INT</text>
</g>
<!-- Node1&#45;&gt;Node2 -->
<g id="edge19" class="edge">
<title>Node1&#45;&gt;Node2</title>
<path fill="none" stroke="black" d="M123.89,-429.13C104.51,-414.8 75.07,-393.04 53.73,-377.26"/>
<polygon fill="black" stroke="black" points="55.9,-374.51 45.78,-371.38 51.74,-380.14 55.9,-374.51"/>
<text xml:space="preserve" text-anchor="middle" x="109.85" y="-395.7" font-family="Times,serif" font-size="14.00">Type</text>
</g>
<!-- Node3 -->
<g id="node4" class="node">
<title>Node3</title>
<ellipse fill="none" stroke="black" cx="144" cy="-356.5" rx="54.93" ry="18"/>
<text xml:space="preserve" text-anchor="middle" x="144" y="-351.45" font-family="Times,serif" font-size="14.00">Ident(main)</text>
</g>
<!-- Node1&#45;&gt;Node3 -->
<g id="edge20" class="edge">
<title>Node1&#45;&gt;Node3</title>
<path fill="none" stroke="black" d="M144,-426.91C144,-415.26 144,-399.55 144,-386.02"/>
<polygon fill="black" stroke="black" points="147.5,-386.36 144,-376.36 140.5,-386.36 147.5,-386.36"/>
<text xml:space="preserve" text-anchor="middle" x="160.5" y="-395.7" font-family="Times,serif" font-size="14.00">Name</text>
</g>
<!-- Node4 -->
<g id="node5" class="node">
<title>Node4</title>
<ellipse fill="none" stroke="black" cx="267" cy="-356.5" rx="32.93" ry="18"/>
<text xml:space="preserve" text-anchor="middle" x="267" y="-351.45" font-family="Times,serif" font-size="14.00">Block</text>
</g>
<!-- Node1&#45;&gt;Node4 -->
<g id="edge21" class="edge">
<title>Node1&#45;&gt;Node4</title>
<path fill="none" stroke="black" d="M164.87,-429.33C184.93,-415.22 215.43,-393.77 237.88,-377.98"/>
<polygon fill="black" stroke="black" points="239.85,-380.87 246.02,-372.26 235.82,-375.15 239.85,-380.87"/>
<text xml:space="preserve" text-anchor="middle" x="232.64" y="-395.7" font-family="Times,serif" font-size="14.00">Block</text>
</g>
<!-- Node2&#45;&gt;Node3 -->
<!-- Node3&#45;&gt;Node4 -->
<!-- Node5 -->
<g id="node6" class="node">
<title>Node5</title>
<ellipse fill="none" stroke="black" cx="144" cy="-268" rx="41.12" ry="18"/>
<text xml:space="preserve" text-anchor="middle" x="144" y="-262.95" font-family="Times,serif" font-size="14.00">VarDecl</text>
</g>
<!-- Node4&#45;&gt;Node5 -->
<g id="edge4" class="edge">
<title>Node4&#45;&gt;Node5</title>
<path fill="none" stroke="black" d="M247.24,-341.6C227.51,-327.73 196.93,-306.23 174.17,-290.22"/>
<polygon fill="black" stroke="black" points="176.38,-287.49 166.19,-284.6 172.35,-293.22 176.38,-287.49"/>
<text xml:space="preserve" text-anchor="middle" x="231.14" y="-307.2" font-family="Times,serif" font-size="14.00">decl0</text>
</g>
<!-- Node8 -->
<g id="node9" class="node">
<title>Node8</title>
<ellipse fill="none" stroke="black" cx="267" cy="-268" rx="46.75" ry="18"/>
<text xml:space="preserve" text-anchor="middle" x="267" y="-262.95" font-family="Times,serif" font-size="14.00">ExprStmt</text>
</g>
<!-- Node4&#45;&gt;Node8 -->
<g id="edge11" class="edge">
<title>Node4&#45;&gt;Node8</title>
<path fill="none" stroke="black" d="M267,-338.41C267,-326.76 267,-311.05 267,-297.52"/>
<polygon fill="black" stroke="black" points="270.5,-297.86 267,-287.86 263.5,-297.86 270.5,-297.86"/>
<text xml:space="preserve" text-anchor="middle" x="282.38" y="-307.2" font-family="Times,serif" font-size="14.00">stmt0</text>
</g>
<!-- Node14 -->
<g id="node15" class="node">
<title>Node14</title>
<ellipse fill="none" stroke="black" cx="385" cy="-268" rx="36" ry="18"/>
<text xml:space="preserve" text-anchor="middle" x="385" y="-262.95" font-family="Times,serif" font-size="14.00">Return</text>
</g>
<!-- Node4&#45;&gt;Node14 -->
<g id="edge16" class="edge">
<title>Node4&#45;&gt;Node14</title>
<path fill="none" stroke="black" d="M286.22,-341.41C305.22,-327.48 334.52,-306 356.29,-290.05"/>
<polygon fill="black" stroke="black" points="358.18,-293 364.17,-284.27 354.04,-287.36 358.18,-293"/>
<text xml:space="preserve" text-anchor="middle" x="351.94" y="-307.2" font-family="Times,serif" font-size="14.00">stmt1</text>
</g>
<!-- Node6 -->
<g id="node7" class="node">
<title>Node6</title>
<ellipse fill="none" stroke="black" cx="62" cy="-179.5" rx="27" ry="18"/>
<text xml:space="preserve" text-anchor="middle" x="62" y="-174.45" font-family="Times,serif" font-size="14.00">INT</text>
</g>
<!-- Node5&#45;&gt;Node6 -->
<g id="edge1" class="edge">
<title>Node5&#45;&gt;Node6</title>
<path fill="none" stroke="black" d="M128.96,-251.13C116.28,-237.76 97.98,-218.45 83.71,-203.4"/>
<polygon fill="black" stroke="black" points="86.31,-201.06 76.89,-196.21 81.23,-205.88 86.31,-201.06"/>
<text xml:space="preserve" text-anchor="middle" x="124.22" y="-218.7" font-family="Times,serif" font-size="14.00">Type</text>
</g>
<!-- Node7 -->
<g id="node8" class="node">
<title>Node7</title>
<ellipse fill="none" stroke="black" cx="165" cy="-179.5" rx="40.6" ry="18"/>
<text xml:space="preserve" text-anchor="middle" x="165" y="-174.45" font-family="Times,serif" font-size="14.00">Ident(x)</text>
</g>
<!-- Node5&#45;&gt;Node7 -->
<g id="edge2" class="edge">
<title>Node5&#45;&gt;Node7</title>
<path fill="none" stroke="black" d="M148.15,-249.91C150.98,-238.26 154.79,-222.55 158.08,-209.02"/>
<polygon fill="black" stroke="black" points="161.47,-209.86 160.43,-199.32 154.67,-208.21 161.47,-209.86"/>
<text xml:space="preserve" text-anchor="middle" x="172.88" y="-218.7" font-family="Times,serif" font-size="14.00">Name</text>
</g>
<!-- Node5&#45;&gt;Node8 -->
<!-- Node6&#45;&gt;Node7 -->
<!-- Node9 -->
<g id="node10" class="node">
<title>Node9</title>
<ellipse fill="none" stroke="black" cx="267" cy="-179.5" rx="36.51" ry="18"/>
<text xml:space="preserve" text-anchor="middle" x="267" y="-174.45" font-family="Times,serif" font-size="14.00">Assign</text>
</g>
<!-- Node8&#45;&gt;Node9 -->
<g id="edge10" class="edge">
<title>Node8&#45;&gt;Node9</title>
<path fill="none" stroke="black" d="M267,-249.91C267,-238.26 267,-222.55 267,-209.02"/>
<polygon fill="black" stroke="black" points="270.5,-209.36 267,-199.36 263.5,-209.36 270.5,-209.36"/>
</g>
<!-- Node8&#45;&gt;Node14 -->
<!-- Node10 -->
<g id="node11" class="node">
<title>Node10</title>
<ellipse fill="none" stroke="black" cx="204" cy="-91" rx="34.46" ry="18"/>
<text xml:space="preserve" text-anchor="middle" x="204" y="-85.95" font-family="Times,serif" font-size="14.00">Var(x)</text>
</g>
<!-- Node9&#45;&gt;Node10 -->
<g id="edge8" class="edge">
<title>Node9&#45;&gt;Node10</title>
<path fill="none" stroke="black" d="M255.15,-162.23C245.91,-149.54 232.92,-131.7 222.34,-117.18"/>
<polygon fill="black" stroke="black" points="225.4,-115.44 216.69,-109.42 219.75,-119.56 225.4,-115.44"/>
<text xml:space="preserve" text-anchor="middle" x="253.89" y="-130.2" font-family="Times,serif" font-size="14.00">LHS</text>
</g>
<!-- Node12 -->
<g id="node13" class="node">
<title>Node12</title>
<ellipse fill="none" stroke="black" cx="283" cy="-91" rx="27" ry="18"/>
<text xml:space="preserve" text-anchor="middle" x="283" y="-85.95" font-family="Times,serif" font-size="14.00">+</text>
</g>
<!-- Node9&#45;&gt;Node12 -->
<g id="edge9" class="edge">
<title>Node9&#45;&gt;Node12</title>
<path fill="none" stroke="black" d="M270.16,-161.41C272.32,-149.76 275.22,-134.05 277.72,-120.52"/>
<polygon fill="black" stroke="black" points="281.14,-121.31 279.52,-110.84 274.25,-120.04 281.14,-121.31"/>
<text xml:space="preserve" text-anchor="middle" x="289.56" y="-130.2" font-family="Times,serif" font-size="14.00">RHS</text>
</g>
<!-- Node11 -->
<g id="node12" class="node">
<title>Node11</title>
<ellipse fill="none" stroke="black" cx="222" cy="-18" rx="33.95" ry="18"/>
<text xml:space="preserve" text-anchor="middle" x="222" y="-12.95" font-family="Times,serif" font-size="14.00">Cst(4)</text>
</g>
<!-- Node13 -->
<g id="node14" class="node">
<title>Node13</title>
<ellipse fill="none" stroke="black" cx="325" cy="-18" rx="33.95" ry="18"/>
<text xml:space="preserve" text-anchor="middle" x="325" y="-12.95" font-family="Times,serif" font-size="14.00">Cst(2)</text>
</g>
<!-- Node11&#45;&gt;Node13 -->
<!-- Node12&#45;&gt;Node11 -->
<g id="edge5" class="edge">
<title>Node12&#45;&gt;Node11</title>
<path fill="none" stroke="black" d="M270.06,-74.94C262.09,-65.66 251.68,-53.54 242.58,-42.96"/>
<polygon fill="black" stroke="black" points="245.5,-40.98 236.33,-35.67 240.19,-45.54 245.5,-40.98"/>
</g>
<!-- Node12&#45;&gt;Node13 -->
<g id="edge6" class="edge">
<title>Node12&#45;&gt;Node13</title>
<path fill="none" stroke="black" d="M292.53,-73.89C297.51,-65.48 303.72,-54.97 309.38,-45.4"/>
<polygon fill="black" stroke="black" points="312.37,-47.23 314.45,-36.84 306.34,-43.67 312.37,-47.23"/>
</g>
<!-- Node16 -->
<g id="node17" class="node">
<title>Node16</title>
<ellipse fill="none" stroke="black" cx="385" cy="-179.5" rx="27" ry="18"/>
<text xml:space="preserve" text-anchor="middle" x="385" y="-174.45" font-family="Times,serif" font-size="14.00">*</text>
</g>
<!-- Node14&#45;&gt;Node16 -->
<g id="edge15" class="edge">
<title>Node14&#45;&gt;Node16</title>
<path fill="none" stroke="black" d="M385,-249.91C385,-238.26 385,-222.55 385,-209.02"/>
<polygon fill="black" stroke="black" points="388.5,-209.36 385,-199.36 381.5,-209.36 388.5,-209.36"/>
</g>
<!-- Node15 -->
<g id="node16" class="node">
<title>Node15</title>
<ellipse fill="none" stroke="black" cx="365" cy="-91" rx="34.46" ry="18"/>
<text xml:space="preserve" text-anchor="middle" x="365" y="-85.95" font-family="Times,serif" font-size="14.00">Var(x)</text>
</g>
<!-- Node17 -->
<g id="node18" class="node">
<title>Node17</title>
<ellipse fill="none" stroke="black" cx="469" cy="-91" rx="33.95" ry="18"/>
<text xml:space="preserve" text-anchor="middle" x="469" y="-85.95" font-family="Times,serif" font-size="14.00">Cst(3)</text>
</g>
<!-- Node15&#45;&gt;Node17 -->
<!-- Node16&#45;&gt;Node15 -->
<g id="edge12" class="edge">
<title>Node16&#45;&gt;Node15</title>
<path fill="none" stroke="black" d="M381.05,-161.41C378.35,-149.76 374.72,-134.05 371.59,-120.52"/>
<polygon fill="black" stroke="black" points="375.02,-119.78 369.35,-110.82 368.2,-121.36 375.02,-119.78"/>
</g>
<!-- Node16&#45;&gt;Node17 -->
<g id="edge13" class="edge">
<title>Node16&#45;&gt;Node17</title>
<path fill="none" stroke="black" d="M399.25,-163.83C412.12,-150.57 431.3,-130.83 446.28,-115.39"/>
<polygon fill="black" stroke="black" points="448.6,-118.03 453.06,-108.41 443.58,-113.15 448.6,-118.03"/>
</g>
</g>
</svg>
