<svg id="portal-architecture" width="100%" xmlns="http://www.w3.org/2000/svg" xmlns:xlink="http://www.w3.org/1999/xlink" class="flowchart" style="max-width: 522.488px; background-color: transparent;" viewBox="0 0 522.48828125 668.100830078125" role="graphics-document document" aria-roledescription="flowchart-v2"><style>#portal-architecture{font-family:Menlo,monospace;font-size:14px;fill:var(--arch-text);}@keyframes edge-animation-frame{from{stroke-dashoffset:0;}}@keyframes dash{to{stroke-dashoffset:0;}}#portal-architecture .edge-animation-slow{stroke-dasharray:9,5!important;stroke-dashoffset:900;animation:dash 50s linear infinite;stroke-linecap:round;}#portal-architecture .edge-animation-fast{stroke-dasharray:9,5!important;stroke-dashoffset:900;animation:dash 20s linear infinite;stroke-linecap:round;}#portal-architecture .error-icon{fill:var(--arch-cluster);}#portal-architecture .error-text{fill:var(--arch-line);stroke:var(--arch-line);}#portal-architecture .edge-thickness-normal{stroke-width:1px;}#portal-architecture .edge-thickness-thick{stroke-width:3.5px;}#portal-architecture .edge-pattern-solid{stroke-dasharray:0;}#portal-architecture .edge-thickness-invisible{stroke-width:0;fill:none;}#portal-architecture .edge-pattern-dashed{stroke-dasharray:3;}#portal-architecture .edge-pattern-dotted{stroke-dasharray:2;}#portal-architecture .marker{fill:var(--arch-line);stroke:var(--arch-line);}#portal-architecture .marker.cross{stroke:var(--arch-line);}#portal-architecture svg{font-family:Menlo,monospace;font-size:14px;}#portal-architecture p{margin:0;}#portal-architecture .label{font-family:Menlo,monospace;color:var(--arch-text);}#portal-architecture .cluster-label text{fill:var(--arch-muted);}#portal-architecture .cluster-label span{color:var(--arch-muted);}#portal-architecture .cluster-label span p{background-color:transparent;}#portal-architecture .label text,#portal-architecture span{fill:var(--arch-text);color:var(--arch-text);}#portal-architecture .node rect,#portal-architecture .node circle,#portal-architecture .node ellipse,#portal-architecture .node polygon,#portal-architecture .node path{fill:var(--arch-node);stroke:var(--arch-border);stroke-width:1px;}#portal-architecture .rough-node .label text,#portal-architecture .node .label text,#portal-architecture .image-shape .label,#portal-architecture .icon-shape .label{text-anchor:middle;}#portal-architecture .node .katex path{fill:#000;stroke:#000;stroke-width:1px;}#portal-architecture .rough-node .label,#portal-architecture .node .label,#portal-architecture .image-shape .label,#portal-architecture .icon-shape .label{text-align:center;}#portal-architecture .node.clickable{cursor:pointer;}#portal-architecture .root .anchor path{fill:var(--arch-line)!important;stroke-width:0;stroke:var(--arch-line);}#portal-architecture .arrowheadPath{fill:var(--arch-text);}#portal-architecture .edgePaths .path{stroke:var(--arch-line);stroke-width:1px;}#portal-architecture .flowchart-link{stroke:var(--arch-line);fill:none;}#portal-architecture .edgeLabel{background-color:transparent;text-align:center;}#portal-architecture .edgeLabel p{background-color:transparent;}#portal-architecture .edgeLabel rect{opacity:0.5;background-color:transparent;fill:transparent;}#portal-architecture .labelBkg{background-color:rgba(136, 136, 136, 0.5);}#portal-architecture .cluster rect{fill:var(--arch-cluster);stroke:var(--arch-cluster-border);stroke-width:1px;}#portal-architecture .cluster text{fill:var(--arch-muted);}#portal-architecture .cluster span{color:var(--arch-muted);}#portal-architecture .node .collapsed-indicator{fill:var(--arch-cluster-border);stroke:none;opacity:0.6;}#portal-architecture .node .collapsed-separator{stroke:var(--arch-cluster-border);stroke-width:0.75px;}#portal-architecture div.mermaidTooltip{position:absolute;text-align:center;max-width:200px;padding:2px;font-family:Menlo,monospace;font-size:12px;background:var(--arch-cluster);border:1px solid hsl(0, 0%, 23.3333333333%);border-radius:2px;pointer-events:none;z-index:100;}#portal-architecture .flowchartTitleText{text-anchor:middle;font-size:18px;fill:var(--arch-text);}#portal-architecture rect.text{fill:none;stroke-width:0;}#portal-architecture .icon-shape,#portal-architecture .image-shape{background-color:transparent;text-align:center;}#portal-architecture .icon-shape p,#portal-architecture .image-shape p{background-color:transparent;padding:2px;}#portal-architecture .icon-shape .label rect,#portal-architecture .image-shape .label rect{opacity:0.5;background-color:transparent;fill:transparent;}#portal-architecture .label-icon{display:inline-block;height:1em;overflow:visible;vertical-align:-0.125em;}#portal-architecture .node .label-icon path{fill:currentColor;stroke:revert;stroke-width:revert;}#portal-architecture .node .neo-node{stroke:var(--arch-border);}#portal-architecture [data-look="neo"].node rect,#portal-architecture [data-look="neo"].cluster rect,#portal-architecture [data-look="neo"].node polygon{stroke:url(#portal-architecture-gradient);filter:drop-shadow( 1px 2px 2px rgba(185,185,185,1));}#portal-architecture [data-look="neo"].swimlane.cluster rect{filter:none;}#portal-architecture [data-look="neo"].node path{stroke:url(#portal-architecture-gradient);stroke-width:1px;}#portal-architecture [data-look="neo"].node .outer-path{filter:drop-shadow( 1px 2px 2px rgba(185,185,185,1));}#portal-architecture [data-look="neo"].node .neo-line path{stroke:var(--arch-border);filter:none;}#portal-architecture [data-look="neo"].node circle{stroke:url(#portal-architecture-gradient);filter:drop-shadow( 1px 2px 2px rgba(185,185,185,1));}#portal-architecture [data-look="neo"].node circle .state-start{fill:#000000;}#portal-architecture [data-look="neo"].icon-shape .icon{fill:url(#portal-architecture-gradient);filter:drop-shadow( 1px 2px 2px rgba(185,185,185,1));}#portal-architecture [data-look="neo"].icon-shape .icon-neo path{stroke:url(#portal-architecture-gradient);filter:drop-shadow( 1px 2px 2px rgba(185,185,185,1));}#portal-architecture :root{--mermaid-font-family:var(--font-mono);}#portal-architecture .live rect{fill:rgb(161, 178, 195)!important;stroke:rgb(209, 226, 243)!important;color:rgb(225, 242, 163)!important;}#portal-architecture .live polygon{fill:rgb(161, 178, 195)!important;stroke:rgb(209, 226, 243)!important;color:rgb(225, 242, 163)!important;}#portal-architecture .live ellipse{fill:rgb(161, 178, 195)!important;stroke:rgb(209, 226, 243)!important;color:rgb(225, 242, 163)!important;}#portal-architecture .live circle{fill:rgb(161, 178, 195)!important;stroke:rgb(209, 226, 243)!important;color:rgb(225, 242, 163)!important;}#portal-architecture .live path{fill:rgb(161, 178, 195)!important;stroke:rgb(209, 226, 243)!important;color:rgb(225, 242, 163)!important;}#portal-architecture .live tspan{fill:rgb(225, 242, 163)!important;}</style><g><marker id="portal-architecture_flowchart-v2-pointEnd" class="marker flowchart-v2" viewBox="0 0 10 10" refX="5" refY="5" markerUnits="userSpaceOnUse" markerWidth="8" markerHeight="8" orient="auto"><path d="M 0 0 L 10 5 L 0 10 z" class="arrowMarkerPath" style="stroke-width: 1; stroke-dasharray: 1, 0;"/></marker><marker id="portal-architecture_flowchart-v2-pointStart" class="marker flowchart-v2" viewBox="0 0 10 10" refX="4.5" refY="5" markerUnits="userSpaceOnUse" markerWidth="8" markerHeight="8" orient="auto"><path d="M 0 5 L 10 10 L 10 0 z" class="arrowMarkerPath" style="stroke-width: 1; stroke-dasharray: 1, 0;"/></marker><marker id="portal-architecture_flowchart-v2-pointEnd-margin" class="marker flowchart-v2" viewBox="0 0 11.5 14" refX="11.5" refY="7" markerUnits="userSpaceOnUse" markerWidth="10.5" markerHeight="14" orient="auto"><path d="M 0 0 L 11.5 7 L 0 14 z" class="arrowMarkerPath" style="stroke-width: 0; stroke-dasharray: 1, 0;"/></marker><marker id="portal-architecture_flowchart-v2-pointStart-margin" class="marker flowchart-v2" viewBox="0 0 11.5 14" refX="1" refY="7" markerUnits="userSpaceOnUse" markerWidth="11.5" markerHeight="14" orient="auto"><polygon points="0,7 11.5,14 11.5,0" class="arrowMarkerPath" style="stroke-width: 0; stroke-dasharray: 1, 0;"/></marker><marker id="portal-architecture_flowchart-v2-circleEnd" class="marker flowchart-v2" viewBox="0 0 10 10" refX="11" refY="5" markerUnits="userSpaceOnUse" markerWidth="11" markerHeight="11" orient="auto"><circle cx="5" cy="5" r="5" class="arrowMarkerPath" style="stroke-width: 1; stroke-dasharray: 1, 0;"/></marker><marker id="portal-architecture_flowchart-v2-circleStart" class="marker flowchart-v2" viewBox="0 0 10 10" refX="-1" refY="5" markerUnits="userSpaceOnUse" markerWidth="11" markerHeight="11" orient="auto"><circle cx="5" cy="5" r="5" class="arrowMarkerPath" style="stroke-width: 1; stroke-dasharray: 1, 0;"/></marker><marker id="portal-architecture_flowchart-v2-circleEnd-margin" class="marker flowchart-v2" viewBox="0 0 10 10" refY="5" refX="12.25" markerUnits="userSpaceOnUse" markerWidth="14" markerHeight="14" orient="auto"><circle cx="5" cy="5" r="5" class="arrowMarkerPath" style="stroke-width: 0; stroke-dasharray: 1, 0;"/></marker><marker id="portal-architecture_flowchart-v2-circleStart-margin" class="marker flowchart-v2" viewBox="0 0 10 10" refX="-2" refY="5" markerUnits="userSpaceOnUse" markerWidth="14" markerHeight="14" orient="auto"><circle cx="5" cy="5" r="5" class="arrowMarkerPath" style="stroke-width: 0; stroke-dasharray: 1, 0;"/></marker><marker id="portal-architecture_flowchart-v2-crossEnd" class="marker cross flowchart-v2" viewBox="0 0 11 11" refX="12" refY="5.2" markerUnits="userSpaceOnUse" markerWidth="11" markerHeight="11" orient="auto"><path d="M 1,1 l 9,9 M 10,1 l -9,9" class="arrowMarkerPath" style="stroke-width: 2; stroke-dasharray: 1, 0;"/></marker><marker id="portal-architecture_flowchart-v2-crossStart" class="marker cross flowchart-v2" viewBox="0 0 11 11" refX="-1" refY="5.2" markerUnits="userSpaceOnUse" markerWidth="11" markerHeight="11" orient="auto"><path d="M 1,1 l 9,9 M 10,1 l -9,9" class="arrowMarkerPath" style="stroke-width: 2; stroke-dasharray: 1, 0;"/></marker><marker id="portal-architecture_flowchart-v2-crossEnd-margin" class="marker cross flowchart-v2" viewBox="0 0 15 15" refX="17.7" refY="7.5" markerUnits="userSpaceOnUse" markerWidth="12" markerHeight="12" orient="auto"><path d="M 1,1 L 14,14 M 1,14 L 14,1" class="arrowMarkerPath" style="stroke-width: 2.5;"/></marker><marker id="portal-architecture_flowchart-v2-crossStart-margin" class="marker cross flowchart-v2" viewBox="0 0 15 15" refX="-3.5" refY="7.5" markerUnits="userSpaceOnUse" markerWidth="12" markerHeight="12" orient="auto"><path d="M 1,1 L 14,14 M 1,14 L 14,1" class="arrowMarkerPath" style="stroke-width: 2.5; stroke-dasharray: 1, 0;"/></marker><g class="root"><g class="clusters"/><g class="edgePaths"><path d="M218.285,43.5L209.351,47.25C200.418,51,182.551,58.5,173.617,69.397C164.684,80.295,164.684,94.589,164.684,101.736L164.684,108.884" id="portal-architecture-L_friends_globe_0" class="edge-thickness-normal edge-pattern-solid edge-thickness-normal edge-pattern-solid flowchart-link" style=";" data-edge="true" data-et="edge" data-id="L_friends_globe_0" data-points="W3sieCI6MjE4LjI4NDU3NzU0NjI5NjMsInkiOjQzLjV9LHsieCI6MTY0LjY4MzU5Mzc1LCJ5Ijo2Nn0seyJ4IjoxNjQuNjgzNTkzNzUsInkiOjExMi44ODM1NTI1NTEyNjk1M31d" data-look="classic" marker-end="url(#portal-architecture_flowchart-v2-pointEnd)"/><path d="M247.098,161.721L273.65,169.562C300.202,177.403,353.306,193.085,379.858,204.093C406.41,215.1,406.41,221.434,406.41,224.6L406.41,227.767" id="portal-architecture-L_globe_room_0" class="edge-thickness-normal edge-pattern-solid edge-thickness-normal edge-pattern-solid flowchart-link" style=";" data-edge="true" data-et="edge" data-id="L_globe_room_0" data-points="W3sieCI6MjQzLjI2MTcxODc1LCJ5IjoxNjAuNTg4MjI1MDQyODA3Mjd9LHsieCI6NDA2LjQxMDE1NjI1LCJ5IjoyMDguNzY3MTA1MTAyNTM5MDZ9LHsieCI6NDA2LjQxMDE1NjI1LCJ5IjoyMzEuNzY3MTA1MTAyNTM5MDZ9XQ==" data-look="classic" marker-start="url(#portal-architecture_flowchart-v2-pointStart)" marker-end="url(#portal-architecture_flowchart-v2-pointEnd)"/><path d="M406.41,337.101L406.41,340.268C406.41,343.434,406.41,349.768,406.41,357.851C406.41,365.934,406.41,375.768,406.41,380.684L406.41,385.601" id="portal-architecture-L_room_pip_0" class="edge-thickness-normal edge-pattern-solid edge-thickness-normal edge-pattern-solid flowchart-link" style=";" data-edge="true" data-et="edge" data-id="L_room_pip_0" data-points="W3sieCI6NDA2LjQxMDE1NjI1LCJ5IjozMzMuMTAwODUyOTY2MzA4Nn0seyJ4Ijo0MDYuNDEwMTU2MjUsInkiOjM1Ni4xMDA4NTI5NjYzMDg2fSx7IngiOjQwNi40MTAxNTYyNSwieSI6Mzg5LjYwMDg1Mjk2NjMwODZ9XQ==" data-look="classic" marker-start="url(#portal-architecture_flowchart-v2-pointStart)" marker-end="url(#portal-architecture_flowchart-v2-pointEnd)"/><path d="M121.216,161.884L107.352,169.697C93.489,177.511,65.762,193.139,51.899,213.231C38.035,233.323,38.035,257.878,38.035,282.434C38.035,306.99,38.035,331.545,38.035,353.49C38.035,375.434,38.035,394.768,38.035,414.101C38.035,433.434,38.035,452.768,44.763,465.958C51.491,479.149,64.946,486.197,71.674,489.721L78.402,493.245" id="portal-architecture-L_globe_search_0" class="edge-thickness-normal edge-pattern-solid edge-thickness-normal edge-pattern-solid flowchart-link" style=";" data-edge="true" data-et="edge" data-id="L_globe_search_0" data-points="W3sieCI6MTIxLjIxNTc4MzQ3OTI1OTc2LCJ5IjoxNjEuODgzNTUyNTUxMjY5NTN9LHsieCI6MzguMDM1MTU2MjUsInkiOjIwOC43NjcxMDUxMDI1MzkwNn0seyJ4IjozOC4wMzUxNTYyNSwieSI6MjgyLjQzMzk3OTAzNDQyMzh9LHsieCI6MzguMDM1MTU2MjUsInkiOjM1Ni4xMDA4NTI5NjYzMDg2fSx7IngiOjM4LjAzNTE1NjI1LCJ5Ijo0MTQuMTAwODUyOTY2MzA4Nn0seyJ4IjozOC4wMzUxNTYyNSwieSI6NDcyLjEwMDg1Mjk2NjMwODZ9LHsieCI6ODEuOTQ1MTA2OTA3ODk0NzQsInkiOjQ5NS4xMDA4NTI5NjYzMDg2fV0=" data-look="classic" marker-end="url(#portal-architecture_flowchart-v2-pointEnd)"/><path d="M406.41,438.601L406.41,444.184C406.41,449.768,406.41,460.934,373.882,472.082C341.353,483.229,276.296,494.357,243.768,499.921L211.24,505.485" id="portal-architecture-L_pip_search_0" class="edge-thickness-normal edge-pattern-solid edge-thickness-normal edge-pattern-solid flowchart-link" style=";" data-edge="true" data-et="edge" data-id="L_pip_search_0" data-points="W3sieCI6NDA2LjQxMDE1NjI1LCJ5Ijo0MzguNjAwODUyOTY2MzA4Nn0seyJ4Ijo0MDYuNDEwMTU2MjUsInkiOjQ3Mi4xMDA4NTI5NjYzMDg2fSx7IngiOjIwNy4yOTY4NzUsInkiOjUwNi4xNTk4MTQyNjgzMzg0NH1d" data-look="classic" marker-end="url(#portal-architecture_flowchart-v2-pointEnd)"/><path d="M164.684,161.884L164.684,169.697C164.684,177.511,164.684,193.139,164.684,208.481C164.684,223.823,164.684,238.878,164.684,246.406L164.684,253.934" id="portal-architecture-L_globe_book_0" class="edge-thickness-normal edge-pattern-solid edge-thickness-normal edge-pattern-solid flowchart-link" style=";" data-edge="true" data-et="edge" data-id="L_globe_book_0" data-points="W3sieCI6MTY0LjY4MzU5Mzc1LCJ5IjoxNjEuODgzNTUyNTUxMjY5NTN9LHsieCI6MTY0LjY4MzU5Mzc1LCJ5IjoyMDguNzY3MTA1MTAyNTM5MDZ9LHsieCI6MTY0LjY4MzU5Mzc1LCJ5IjoyNTcuOTMzOTc5MDM0NDIzOH1d" data-look="classic" marker-end="url(#portal-architecture_flowchart-v2-pointEnd)"/><path d="M128.719,544.101L128.719,547.934C128.719,551.768,128.719,559.434,128.719,566.434C128.719,573.434,128.719,579.768,128.719,582.934L128.719,586.101" id="portal-architecture-L_search_providers_0" class="edge-thickness-normal edge-pattern-solid edge-thickness-normal edge-pattern-solid flowchart-link" style=";" data-edge="true" data-et="edge" data-id="L_search_providers_0" data-points="W3sieCI6MTI4LjcxODc1LCJ5Ijo1NDQuMTAwODUyOTY2MzA4Nn0seyJ4IjoxMjguNzE4NzUsInkiOjU2Ny4xMDA4NTI5NjYzMDg2fSx7IngiOjEyOC43MTg3NSwieSI6NTkwLjEwMDg1Mjk2NjMwODZ9XQ==" data-look="classic" marker-end="url(#portal-architecture_flowchart-v2-pointEnd)"/><path d="M164.684,306.934L164.684,315.128C164.684,323.323,164.684,339.712,164.684,351.073C164.684,362.434,164.684,368.768,164.684,371.934L164.684,375.101" id="portal-architecture-L_book_pay_0" class="edge-thickness-normal edge-pattern-solid edge-thickness-normal edge-pattern-solid flowchart-link" style=";" data-edge="true" data-et="edge" data-id="L_book_pay_0" data-points="W3sieCI6MTY0LjY4MzU5Mzc1LCJ5IjozMDYuOTMzOTc5MDM0NDIzOH0seyJ4IjoxNjQuNjgzNTkzNzUsInkiOjM1Ni4xMDA4NTI5NjYzMDg2fSx7IngiOjE2NC42ODM1OTM3NSwieSI6Mzc5LjEwMDg1Mjk2NjMwODZ9XQ==" data-look="classic" marker-end="url(#portal-architecture_flowchart-v2-pointEnd)"/><path d="M299.09,43.5L307.857,47.25C316.624,51,334.158,58.5,342.925,65.417C351.691,72.333,351.691,78.667,351.691,81.833L351.691,85" id="portal-architecture-L_friends_accounts_0" class="edge-thickness-normal edge-pattern-dotted edge-thickness-normal edge-pattern-solid flowchart-link" style=";" data-edge="true" data-et="edge" data-id="L_friends_accounts_0" data-points="W3sieCI6Mjk5LjA5MDQyMjQ1MzcwMzcsInkiOjQzLjV9LHsieCI6MzUxLjY5MTQwNjI1LCJ5Ijo2Nn0seyJ4IjozNTEuNjkxNDA2MjUsInkiOjg5fV0=" data-look="classic" marker-end="url(#portal-architecture_flowchart-v2-pointEnd)"/></g><g class="edgeLabels"><g class="edgeLabel"><g class="label" data-id="L_friends_globe_0" transform="translate(0, 0)"><text y="-10.1" text-anchor="middle"><tspan class="text-outer-tspan row" x="0" y="-0.1em" dy="1.1em" text-anchor="middle"/></text></g></g><g><rect class="background" style="stroke: none"/></g><g class="edgeLabel"><g class="label" data-id="L_globe_room_0" transform="translate(0, 0)"><text y="-10.1" text-anchor="middle"><tspan class="text-outer-tspan row" x="0" y="-0.1em" dy="1.1em" text-anchor="middle"/></text></g></g><g><rect class="background" style="stroke: none"/></g><g class="edgeLabel"><g class="label" data-id="L_room_pip_0" transform="translate(0, 0)"><text y="-10.1" text-anchor="middle"><tspan class="text-outer-tspan row" x="0" y="-0.1em" dy="1.1em" text-anchor="middle"/></text></g></g><g><rect class="background" style="stroke: none"/></g><g class="edgeLabel"><g class="label" data-id="L_globe_search_0" transform="translate(0, 0)"><text y="-10.1" text-anchor="middle"><tspan class="text-outer-tspan row" x="0" y="-0.1em" dy="1.1em" text-anchor="middle"/></text></g></g><g><rect class="background" style="stroke: none"/></g><g class="edgeLabel"><g class="label" data-id="L_pip_search_0" transform="translate(0, 0)"><text y="-10.1" text-anchor="middle"><tspan class="text-outer-tspan row" x="0" y="-0.1em" dy="1.1em" text-anchor="middle"/></text></g></g><g><rect class="background" style="stroke: none"/></g><g class="edgeLabel"><g class="label" data-id="L_globe_book_0" transform="translate(0, 0)"><text y="-10.1" text-anchor="middle"><tspan class="text-outer-tspan row" x="0" y="-0.1em" dy="1.1em" text-anchor="middle"/></text></g></g><g><rect class="background" style="stroke: none"/></g><g class="edgeLabel"><g class="label" data-id="L_search_providers_0" transform="translate(0, 0)"><text y="-10.1" text-anchor="middle"><tspan class="text-outer-tspan row" x="0" y="-0.1em" dy="1.1em" text-anchor="middle"/></text></g></g><g><rect class="background" style="stroke: none"/></g><g class="edgeLabel"><g class="label" data-id="L_book_pay_0" transform="translate(0, 0)"><text y="-10.1" text-anchor="middle"><tspan class="text-outer-tspan row" x="0" y="-0.1em" dy="1.1em" text-anchor="middle"/></text></g></g><g><rect class="background" style="stroke: none"/></g><g class="edgeLabel"><g class="label" data-id="L_friends_accounts_0" transform="translate(0, 0)"><text y="-10.1" text-anchor="middle"><tspan class="text-outer-tspan row" x="0" y="-0.1em" dy="1.1em" text-anchor="middle"/></text></g></g><g><rect class="background" style="stroke: none"/></g></g><g class="nodes"><g class="node default" id="portal-architecture-flowchart-friends-0" data-look="classic" transform="translate(258.1875, 25.5)"><g class="basic label-container outer-path"><path d="M-65.5234375 -17.5 C-23.71789935529152 -17.5, 18.087638789416957 -17.5, 65.5234375 -17.5 C65.5234375 -17.5, 65.5234375 -17.5, 65.5234375 -17.5 C65.79900956095844 -17.491162940373542, 66.07458162191686 -17.48232588074708, 66.64466634966247 -17.464044373130886 C66.9022998088681 -17.439190783170886, 67.15993326807373 -17.414337193210887, 67.76128782947885 -17.35632524190681 C68.15222442183499 -17.293121645413223, 68.54316101419113 -17.229918048919636, 68.86871350227402 -17.177285247343644 C69.1464703547661 -17.113889058295182, 69.42422720725816 -17.05049286924672, 69.96239271841638 -16.927660103183015 C70.37292673267423 -16.8058157626883, 70.78346074693208 -16.683971422193583, 71.03783131541336 -16.6084755726867 C71.44288961932173 -16.459410372530503, 71.84794792323011 -16.310345172374305, 72.09061008538905 -16.22104325355538 C72.29945343972915 -16.12859449570701, 72.50829679406925 -16.03614573785864, 73.11640293455727 -15.766955188292336 C73.50330700936995 -15.565107580286448, 73.89021108418264 -15.363259972280558, 74.11099466006891 -15.248077322159316 C74.47825990942162 -15.025438969711526, 74.84552515877434 -14.802800617263737, 75.0702982711846 -14.666541835607212 C75.31057952690482 -14.498932033224705, 75.55086078262504 -14.331322230842197, 75.99037178359627 -14.024738382689241 C76.24481622806053 -13.821825709280034, 76.49926067252478 -13.618913035870829, 76.8674344178863 -13.325304271459855 C77.17335382532666 -13.047476359806497, 77.47927323276701 -12.769648448153141, 77.69788213556102 -12.571113626710233 C77.94776753128332 -12.313086439654422, 78.19765292700562 -12.05505925259861, 78.47830244881801 -11.765265579573047 C78.62786855399598 -11.589576721878526, 78.77743465917395 -11.413887864184003, 79.20548844319052 -10.911071532527838 C79.37646799286784 -10.681974512517638, 79.54744754254517 -10.452877492507437, 79.87645195544673 -10.012041552137973 C80.05228198341149 -9.741919412210583, 80.22811201137625 -9.471797272283194, 80.48843585259355 -9.071869945434191 C80.70569407650775 -8.686105969093784, 80.92295230042195 -8.300341992753378, 81.0389253615275 -8.094420079214617 C81.17274249168422 -7.816545945216301, 81.30655962184092 -7.538671811217985, 81.52565840277671 -7.083708504641896 C81.6636666855545 -6.742825377972146, 81.80167496833228 -6.401942251302395, 81.94663488587081 -6.043888452372892 C82.02147238152261 -5.818489839205317, 82.0963098771744 -5.593091226037743, 82.30012492814156 -4.979232766043073 C82.40654163120688 -4.573419755964152, 82.5129583342722 -4.167606745885231, 82.58467596318191 -3.894116344235504 C82.64852807467476 -3.566249246868289, 82.7123801861676 -3.2383821495010734, 82.79911870975288 -2.792998163084143 C82.84172668376472 -2.4625391305444104, 82.88433465777656 -2.1320800980046783, 82.94257197661096 -1.680402953384434 C82.96102955001108 -1.3929113489926022, 82.97948712341119 -1.1054197446007703, 83.01444628351203 -0.5609026075039654 C83.01444628351203 -0.20492160516614139, 83.01444628351203 0.1510593971716826, 83.01444628351203 0.5609026075039611 C82.99174878719121 0.914434433789866, 82.96905129087041 1.267966260075771, 82.94257197661096 1.680402953384422 C82.91022362407328 1.9312903877619492, 82.8778752715356 2.1821778221394763, 82.79911870975288 2.792998163084131 C82.75541382598831 3.017413504184693, 82.71170894222375 3.241828845285255, 82.58467596318191 3.8941163442355 C82.51523995530323 4.158905936033061, 82.44580394742457 4.423695527830622, 82.30012492814156 4.979232766043061 C82.20228002895195 5.273926012934585, 82.10443512976234 5.56861925982611, 81.94663488587081 6.04388845237288 C81.8246619033284 6.345164077439802, 81.702688920786 6.646439702506722, 81.52565840277671 7.0837085046418915 C81.33447126509539 7.480712686786586, 81.14328412741406 7.877716868931281, 81.0389253615275 8.094420079214613 C80.84629424401348 8.436456134376558, 80.65366312649947 8.778492189538504, 80.48843585259355 9.071869945434186 C80.25695867143254 9.427481056023916, 80.02548149027152 9.783092166613647, 79.87645195544673 10.012041552137964 C79.72328108153285 10.217276569028893, 79.57011020761895 10.422511585919821, 79.20548844319052 10.911071532527835 C78.97475536459953 11.182103735724908, 78.74402228600856 11.453135938921982, 78.47830244881803 11.765265579573038 C78.20772229020574 12.044661808384394, 77.93714213159345 12.32405803719575, 77.69788213556102 12.571113626710229 C77.48759993894048 12.762086353918962, 77.27731774231995 12.953059081127693, 76.86743441788632 13.325304271459842 C76.6159970029942 13.525818918805685, 76.3645595881021 13.726333566151528, 75.99037178359629 14.02473838268924 C75.69170014269135 14.233078790097574, 75.3930285017864 14.44141919750591, 75.07029827118461 14.666541835607207 C74.74782535066092 14.862026815089894, 74.42535243013724 15.057511794572584, 74.11099466006891 15.248077322159315 C73.74235533773776 15.44039622049472, 73.37371601540661 15.632715118830124, 73.11640293455727 15.766955188292332 C72.88675283594773 15.868614474618646, 72.65710273733818 15.970273760944961, 72.09061008538906 16.22104325355538 C71.77980989002371 16.33542059845534, 71.46900969465837 16.449797943355296, 71.03783131541337 16.608475572686697 C70.60889389705879 16.735781946915882, 70.17995647870423 16.863088321145067, 69.9623927184164 16.927660103183012 C69.5344367141466 17.025338268483676, 69.10648070987679 17.123016433784343, 68.86871350227402 17.177285247343644 C68.54608001381887 17.229446127697003, 68.2234465253637 17.28160700805036, 67.76128782947886 17.356325241906806 C67.50233581070825 17.38130603172224, 67.24338379193762 17.406286821537677, 66.64466634966247 17.464044373130886 C66.26836681595812 17.476111566754174, 65.89206728225376 17.488178760377465, 65.5234375 17.5 C65.5234375 17.5, 65.5234375 17.5, 65.5234375 17.5 C36.641195277442264 17.5, 7.758953054884536 17.5, -65.5234375 17.5 C-65.87386023703797 17.488762624879673, -66.22428297407595 17.477525249759342, -66.64466634966247 17.464044373130886 C-66.98828138262446 17.430896244158582, -67.33189641558646 17.397748115186275, -67.76128782947886 17.356325241906806 C-67.98417203440087 17.320291052147837, -68.2070562393229 17.284256862388872, -68.86871350227402 17.177285247343644 C-69.28643198199748 17.08194373021459, -69.70415046172094 16.986602213085533, -69.96239271841637 16.927660103183015 C-70.3226993832949 16.820722976335347, -70.68300604817343 16.713785849487678, -71.03783131541336 16.608475572686704 C-71.38207922441093 16.481789159982807, -71.72632713340852 16.35510274727891, -72.09061008538905 16.22104325355538 C-72.31109672066505 16.123440360622343, -72.53158335594107 16.025837467689307, -73.11640293455727 15.766955188292338 C-73.3346745652509 15.653083018369129, -73.55294619594451 15.539210848445919, -74.11099466006891 15.248077322159318 C-74.33837641962954 15.11023716327012, -74.56575817919018 14.972397004380923, -75.07029827118458 14.666541835607218 C-75.42398853144716 14.419822821052636, -75.77767879170976 14.173103806498052, -75.99037178359627 14.024738382689243 C-76.22687067685114 13.83613680881836, -76.46336957010598 13.647535234947476, -76.8674344178863 13.325304271459856 C-77.19240116450317 13.03017807033137, -77.51736791112002 12.735051869202884, -77.697882135561 12.571113626710241 C-77.9766215030329 12.28329234486784, -78.25536087050479 11.99547106302544, -78.47830244881803 11.765265579573043 C-78.68276221008175 11.525095509902675, -78.88722197134548 11.284925440232305, -79.20548844319052 10.91107153252784 C-79.36166924314732 10.701803488949306, -79.51785004310412 10.492535445370772, -79.87645195544673 10.012041552137974 C-80.09622262187585 9.674414791815783, -80.31599328830498 9.33678803149359, -80.48843585259355 9.071869945434198 C-80.656487210645 8.773477742168582, -80.82453856869645 8.475085538902967, -81.0389253615275 8.094420079214618 C-81.14485054897132 7.874464161051587, -81.25077573641515 7.654508242888555, -81.52565840277671 7.083708504641898 C-81.64072808992749 6.799484152658432, -81.75579777707826 6.515259800674967, -81.94663488587081 6.043888452372894 C-82.0379247341817 5.768937974322534, -82.12921458249261 5.493987496272174, -82.30012492814156 4.979232766043068 C-82.41261676569914 4.550252635165177, -82.52510860325674 4.121272504287287, -82.58467596318191 3.8941163442355062 C-82.66402300064664 3.4866860768564463, -82.74337003811137 3.0792558094773868, -82.79911870975288 2.7929981630841447 C-82.83729339836357 2.4969228166645, -82.87546808697427 2.2008474702448555, -82.94257197661096 1.680402953384444 C-82.9602821561599 1.404552611509959, -82.97799233570886 1.128702269635474, -83.01444628351203 0.5609026075039676 C-83.01444628351203 0.18867634347946666, -83.01444628351203 -0.18354992054503427, -83.01444628351203 -0.560902607503959 C-82.98987667971221 -0.9435940189134873, -82.96530707591238 -1.3262854303230154, -82.94257197661096 -1.6804029533844198 C-82.88932016008616 -2.0934135265902545, -82.83606834356135 -2.5064240997960887, -82.79911870975288 -2.7929981630841367 C-82.73554987665479 -3.119410685765209, -82.67198104355668 -3.445823208446281, -82.58467596318191 -3.894116344235498 C-82.49458758098794 -4.2376623900929555, -82.40449919879397 -4.581208435950413, -82.30012492814157 -4.979232766043059 C-82.17358445628602 -5.360352505785766, -82.04704398443046 -5.741472245528472, -81.94663488587081 -6.0438884523728715 C-81.78074997114602 -6.453627398909729, -81.61486505642124 -6.863366345446587, -81.52565840277671 -7.083708504641889 C-81.39979975373635 -7.3450566823179, -81.27394110469598 -7.606404859993912, -81.0389253615275 -8.094420079214611 C-80.86306965719473 -8.406669689578486, -80.68721395286194 -8.718919299942359, -80.48843585259355 -9.071869945434193 C-80.32626880067491 -9.321002085131964, -80.16410174875625 -9.570134224829737, -79.87645195544673 -10.012041552137969 C-79.63461323944698 -10.336083399617364, -79.39277452344723 -10.66012524709676, -79.20548844319052 -10.911071532527835 C-78.91824506279235 -11.248483951754883, -78.6310016823942 -11.585896370981931, -78.47830244881803 -11.765265579573038 C-78.2095502627995 -12.042774276602001, -77.94079807678095 -12.320282973630963, -77.69788213556102 -12.571113626710224 C-77.44120719718664 -12.804219014495118, -77.18453225881225 -13.03732440228001, -76.86743441788632 -13.32530427145984 C-76.51669542925681 -13.605009281335395, -76.16595644062731 -13.884714291210948, -75.99037178359629 -14.024738382689236 C-75.75147366820732 -14.191383366251841, -75.51257555281836 -14.358028349814449, -75.07029827118461 -14.666541835607205 C-74.6874075824404 -14.89865242123939, -74.30451689369619 -15.130763006871577, -74.11099466006891 -15.248077322159313 C-73.81442650660044 -15.402796737862845, -73.51785835313197 -15.557516153566377, -73.11640293455727 -15.766955188292332 C-72.81933643266366 -15.898457716515953, -72.52226993077005 -16.029960244739573, -72.09061008538906 -16.221043253555376 C-71.67973488450184 -16.372249125570594, -71.26885968361462 -16.52345499758581, -71.03783131541337 -16.608475572686697 C-70.61085916030007 -16.73519866710175, -70.18388700518675 -16.861921761516804, -69.9623927184164 -16.92766010318301 C-69.5446594598597 -17.023004993484307, -69.12692620130302 -17.118349883785605, -68.86871350227402 -17.17728524734364 C-68.46044788469834 -17.243290466246126, -68.05218226712267 -17.309295685148612, -67.76128782947887 -17.356325241906806 C-67.37037039987075 -17.394036576194107, -66.97945297026264 -17.43174791048141, -66.64466634966247 -17.464044373130886 C-66.21101346064137 -17.47795077722765, -65.77736057162026 -17.491857181324413, -65.5234375 -17.5 C-65.5234375 -17.5, -65.5234375 -17.5, -65.5234375 -17.5" stroke="none" stroke-width="0" fill="var(--arch-node)" style=""/><path d="M-65.5234375 -17.5 C-26.731675991263394 -17.5, 12.060085517473212 -17.5, 65.5234375 -17.5 M-65.5234375 -17.5 C-22.76796048454584 -17.5, 19.987516530908323 -17.5, 65.5234375 -17.5 M65.5234375 -17.5 C65.5234375 -17.5, 65.5234375 -17.5, 65.5234375 -17.5 M65.5234375 -17.5 C65.5234375 -17.5, 65.5234375 -17.5, 65.5234375 -17.5 M65.5234375 -17.5 C65.74871805241808 -17.492775691165946, 65.97399860483617 -17.48555138233189, 66.64466634966247 -17.464044373130886 M65.5234375 -17.5 C65.75804207951386 -17.4924766877651, 65.99264665902771 -17.484953375530203, 66.64466634966247 -17.464044373130886 M66.64466634966247 -17.464044373130886 C67.001973035709 -17.42957542685214, 67.35927972175551 -17.395106480573393, 67.76128782947885 -17.35632524190681 M66.64466634966247 -17.464044373130886 C66.87060108735709 -17.442248720711763, 67.0965358250517 -17.42045306829264, 67.76128782947885 -17.35632524190681 M67.76128782947885 -17.35632524190681 C68.16836360423454 -17.29051238756409, 68.57543937899025 -17.22469953322137, 68.86871350227402 -17.177285247343644 M67.76128782947885 -17.35632524190681 C68.0252334393617 -17.313652562629724, 68.28917904924457 -17.270979883352638, 68.86871350227402 -17.177285247343644 M68.86871350227402 -17.177285247343644 C69.23269981314178 -17.09420774712073, 69.59668612400955 -17.01113024689782, 69.96239271841638 -16.927660103183015 M68.86871350227402 -17.177285247343644 C69.22231662418584 -17.096577642243286, 69.57591974609765 -17.01587003714293, 69.96239271841638 -16.927660103183015 M69.96239271841638 -16.927660103183015 C70.33902911492149 -16.815876397705086, 70.71566551142661 -16.704092692227153, 71.03783131541336 -16.6084755726867 M69.96239271841638 -16.927660103183015 C70.31455744619262 -16.823139460529404, 70.66672217396885 -16.718618817875797, 71.03783131541336 -16.6084755726867 M71.03783131541336 -16.6084755726867 C71.38825395176669 -16.479516803237335, 71.73867658812001 -16.350558033787966, 72.09061008538905 -16.22104325355538 M71.03783131541336 -16.6084755726867 C71.3219858521227 -16.50390407648192, 71.60614038883203 -16.399332580277143, 72.09061008538905 -16.22104325355538 M72.09061008538905 -16.22104325355538 C72.46365003267114 -16.05590953473046, 72.83668997995325 -15.890775815905544, 73.11640293455727 -15.766955188292336 M72.09061008538905 -16.22104325355538 C72.4934431300823 -16.04272101428738, 72.89627617477554 -15.864398775019382, 73.11640293455727 -15.766955188292336 M73.11640293455727 -15.766955188292336 C73.36169220898435 -15.638987930939008, 73.60698148341143 -15.511020673585678, 74.11099466006891 -15.248077322159316 M73.11640293455727 -15.766955188292336 C73.40413452126893 -15.616845803805738, 73.6918661079806 -15.46673641931914, 74.11099466006891 -15.248077322159316 M74.11099466006891 -15.248077322159316 C74.42406260263084 -15.05829369558683, 74.73713054519277 -14.868510069014343, 75.0702982711846 -14.666541835607212 M74.11099466006891 -15.248077322159316 C74.48372648476686 -15.02212509961208, 74.85645830946483 -14.796172877064842, 75.0702982711846 -14.666541835607212 M75.0702982711846 -14.666541835607212 C75.33461771333113 -14.482164034970028, 75.59893715547766 -14.297786234332843, 75.99037178359627 -14.024738382689241 M75.0702982711846 -14.666541835607212 C75.28166249530626 -14.519103302669729, 75.49302671942793 -14.371664769732245, 75.99037178359627 -14.024738382689241 M75.99037178359627 -14.024738382689241 C76.2469085209265 -13.820157161397674, 76.50344525825672 -13.615575940106107, 76.8674344178863 -13.325304271459855 M75.99037178359627 -14.024738382689241 C76.21058522142972 -13.849124026142752, 76.43079865926319 -13.673509669596264, 76.8674344178863 -13.325304271459855 M76.8674344178863 -13.325304271459855 C77.15491175350905 -13.064224961480761, 77.44238908913181 -12.80314565150167, 77.69788213556102 -12.571113626710233 M76.8674344178863 -13.325304271459855 C77.11876276098455 -13.097054520041585, 77.3700911040828 -12.868804768623317, 77.69788213556102 -12.571113626710233 M77.69788213556102 -12.571113626710233 C77.99685151379654 -12.262403197839603, 78.29582089203207 -11.953692768968976, 78.47830244881801 -11.765265579573047 M77.69788213556102 -12.571113626710233 C77.8850488127794 -12.377848665812271, 78.07221548999777 -12.18458370491431, 78.47830244881801 -11.765265579573047 M78.47830244881801 -11.765265579573047 C78.75387485735354 -11.441562547992975, 79.02944726588905 -11.117859516412903, 79.20548844319052 -10.911071532527838 M78.47830244881801 -11.765265579573047 C78.64016686626043 -11.575130424498917, 78.80203128370285 -11.38499526942479, 79.20548844319052 -10.911071532527838 M79.20548844319052 -10.911071532527838 C79.37785308558996 -10.680118614454546, 79.5502177279894 -10.449165696381254, 79.87645195544673 -10.012041552137973 M79.20548844319052 -10.911071532527838 C79.43377159464369 -10.605192906603522, 79.66205474609686 -10.299314280679203, 79.87645195544673 -10.012041552137973 M79.87645195544673 -10.012041552137973 C80.00510469840167 -9.814396390860518, 80.1337574413566 -9.61675122958306, 80.48843585259355 -9.071869945434191 M79.87645195544673 -10.012041552137973 C80.11991806930335 -9.638012221448589, 80.36338418315998 -9.263982890759205, 80.48843585259355 -9.071869945434191 M80.48843585259355 -9.071869945434191 C80.6520617843868 -8.781335534613005, 80.81568771618007 -8.490801123791819, 81.0389253615275 -8.094420079214617 M80.48843585259355 -9.071869945434191 C80.66743570452945 -8.754037582621509, 80.84643555646535 -8.436205219808826, 81.0389253615275 -8.094420079214617 M81.0389253615275 -8.094420079214617 C81.21258286418932 -7.733816559262043, 81.38624036685113 -7.37321303930947, 81.52565840277671 -7.083708504641896 M81.0389253615275 -8.094420079214617 C81.18231187130631 -7.796674923679098, 81.32569838108512 -7.4989297681435785, 81.52565840277671 -7.083708504641896 M81.52565840277671 -7.083708504641896 C81.65276322017097 -6.769757148273614, 81.77986803756524 -6.455805791905332, 81.94663488587081 -6.043888452372892 M81.52565840277671 -7.083708504641896 C81.61861347637706 -6.854107675684943, 81.71156854997741 -6.62450684672799, 81.94663488587081 -6.043888452372892 M81.94663488587081 -6.043888452372892 C82.05563188201856 -5.715606866288821, 82.1646288781663 -5.387325280204751, 82.30012492814156 -4.979232766043073 M81.94663488587081 -6.043888452372892 C82.0572474971793 -5.710740890837963, 82.1678601084878 -5.377593329303034, 82.30012492814156 -4.979232766043073 M82.30012492814156 -4.979232766043073 C82.39977775924808 -4.599213331223673, 82.4994305903546 -4.219193896404272, 82.58467596318191 -3.894116344235504 M82.30012492814156 -4.979232766043073 C82.36278126907003 -4.7402969826528745, 82.4254376099985 -4.501361199262676, 82.58467596318191 -3.894116344235504 M82.58467596318191 -3.894116344235504 C82.6473463138239 -3.5723173390721445, 82.71001666446591 -3.2505183339087846, 82.79911870975288 -2.792998163084143 M82.58467596318191 -3.894116344235504 C82.63299119931304 -3.646027818130943, 82.68130643544416 -3.3979392920263827, 82.79911870975288 -2.792998163084143 M82.79911870975288 -2.792998163084143 C82.84350394027237 -2.448755080030044, 82.88788917079187 -2.104511996975946, 82.94257197661096 -1.680402953384434 M82.79911870975288 -2.792998163084143 C82.82964913555669 -2.556210209464233, 82.86017956136051 -2.3194222558443234, 82.94257197661096 -1.680402953384434 M82.94257197661096 -1.680402953384434 C82.95710902175823 -1.4539767411241762, 82.97164606690549 -1.2275505288639184, 83.01444628351203 -0.5609026075039654 M82.94257197661096 -1.680402953384434 C82.96438570092126 -1.3406365895303072, 82.98619942523155 -1.0008702256761803, 83.01444628351203 -0.5609026075039654 M83.01444628351203 -0.5609026075039654 C83.01444628351203 -0.2655494895954053, 83.01444628351203 0.02980362831315475, 83.01444628351203 0.5609026075039611 M83.01444628351203 -0.5609026075039654 C83.01444628351203 -0.20428837793389043, 83.01444628351203 0.1523258516361845, 83.01444628351203 0.5609026075039611 M83.01444628351203 0.5609026075039611 C82.99491897377652 0.8650562187953212, 82.975391664041 1.1692098300866813, 82.94257197661096 1.680402953384422 M83.01444628351203 0.5609026075039611 C82.99847003967928 0.8097455009910977, 82.98249379584651 1.0585883944782342, 82.94257197661096 1.680402953384422 M82.94257197661096 1.680402953384422 C82.9082184082548 1.946842445675487, 82.87386483989863 2.213281937966552, 82.79911870975288 2.792998163084131 M82.94257197661096 1.680402953384422 C82.90853049014542 1.9444220001592867, 82.8744890036799 2.2084410469341513, 82.79911870975288 2.792998163084131 M82.79911870975288 2.792998163084131 C82.74384210832 3.076831828728085, 82.68856550688713 3.3606654943720393, 82.58467596318191 3.8941163442355 M82.79911870975288 2.792998163084131 C82.7403483979733 3.09477129296239, 82.68157808619375 3.396544422840649, 82.58467596318191 3.8941163442355 M82.58467596318191 3.8941163442355 C82.52545055701965 4.119968486385567, 82.46622515085741 4.345820628535634, 82.30012492814156 4.979232766043061 M82.58467596318191 3.8941163442355 C82.47583179291321 4.309186338831832, 82.36698762264452 4.724256333428165, 82.30012492814156 4.979232766043061 M82.30012492814156 4.979232766043061 C82.22907716979327 5.1932172942650645, 82.158029411445 5.407201822487069, 81.94663488587081 6.04388845237288 M82.30012492814156 4.979232766043061 C82.1837099593363 5.329856103878142, 82.06729499053102 5.680479441713224, 81.94663488587081 6.04388845237288 M81.94663488587081 6.04388845237288 C81.82038145297479 6.355736872570124, 81.69412802007876 6.6675852927673676, 81.52565840277671 7.0837085046418915 M81.94663488587081 6.04388845237288 C81.78651475468037 6.439388272125407, 81.62639462348993 6.834888091877933, 81.52565840277671 7.0837085046418915 M81.52565840277671 7.0837085046418915 C81.33460598975633 7.480432928145503, 81.14355357673594 7.877157351649115, 81.0389253615275 8.094420079214613 M81.52565840277671 7.0837085046418915 C81.34708475380786 7.454520507589697, 81.16851110483903 7.825332510537502, 81.0389253615275 8.094420079214613 M81.0389253615275 8.094420079214613 C80.91307038448954 8.317888335143879, 80.78721540745157 8.541356591073143, 80.48843585259355 9.071869945434186 M81.0389253615275 8.094420079214613 C80.92692386641508 8.29329007516791, 80.81492237130266 8.492160071121207, 80.48843585259355 9.071869945434186 M80.48843585259355 9.071869945434186 C80.31225001107767 9.342538710525423, 80.13606416956176 9.61320747561666, 79.87645195544673 10.012041552137964 M80.48843585259355 9.071869945434186 C80.36015623882864 9.268941880076559, 80.23187662506372 9.46601381471893, 79.87645195544673 10.012041552137964 M79.87645195544673 10.012041552137964 C79.70578125346336 10.240724744374871, 79.53511055147999 10.469407936611777, 79.20548844319052 10.911071532527835 M79.87645195544673 10.012041552137964 C79.64257992572573 10.32540876578389, 79.40870789600471 10.638775979429818, 79.20548844319052 10.911071532527835 M79.20548844319052 10.911071532527835 C78.91728278731787 11.24961429528224, 78.62907713144523 11.588157058036648, 78.47830244881803 11.765265579573038 M79.20548844319052 10.911071532527835 C79.0469848778285 11.09725883951043, 78.88848131246648 11.283446146493022, 78.47830244881803 11.765265579573038 M78.47830244881803 11.765265579573038 C78.18033054572194 12.072946033467963, 77.88235864262585 12.380626487362886, 77.69788213556102 12.571113626710229 M78.47830244881803 11.765265579573038 C78.23545110228473 12.016029533335018, 77.99259975575144 12.266793487096999, 77.69788213556102 12.571113626710229 M77.69788213556102 12.571113626710229 C77.39954582851009 12.842054767227754, 77.10120952145915 13.112995907745281, 76.86743441788632 13.325304271459842 M77.69788213556102 12.571113626710229 C77.53163234731295 12.722097285668776, 77.36538255906487 12.873080944627322, 76.86743441788632 13.325304271459842 M76.86743441788632 13.325304271459842 C76.6324972895217 13.512660379391075, 76.39756016115707 13.700016487322308, 75.99037178359629 14.02473838268924 M76.86743441788632 13.325304271459842 C76.67424588234002 13.479366987595178, 76.48105734679372 13.633429703730515, 75.99037178359629 14.02473838268924 M75.99037178359629 14.02473838268924 C75.69864614196536 14.228233561691486, 75.40692050033444 14.43172874069373, 75.07029827118461 14.666541835607207 M75.99037178359629 14.02473838268924 C75.72737203255022 14.208195623943249, 75.46437228150415 14.391652865197257, 75.07029827118461 14.666541835607207 M75.07029827118461 14.666541835607207 C74.73141021159913 14.87197776885522, 74.39252215201364 15.077413702103234, 74.11099466006891 15.248077322159315 M75.07029827118461 14.666541835607207 C74.81121036688985 14.823602445760217, 74.5521224625951 14.980663055913228, 74.11099466006891 15.248077322159315 M74.11099466006891 15.248077322159315 C73.83449833091949 15.392325279972216, 73.55800200177008 15.536573237785117, 73.11640293455727 15.766955188292332 M74.11099466006891 15.248077322159315 C73.84115913267358 15.388850343963556, 73.57132360527825 15.529623365767796, 73.11640293455727 15.766955188292332 M73.11640293455727 15.766955188292332 C72.8496714695156 15.885029295558493, 72.58294000447394 16.003103402824653, 72.09061008538906 16.22104325355538 M73.11640293455727 15.766955188292332 C72.89629446873771 15.864390676825002, 72.67618600291814 15.96182616535767, 72.09061008538906 16.22104325355538 M72.09061008538906 16.22104325355538 C71.7141741809553 16.35957514612236, 71.33773827652153 16.498107038689337, 71.03783131541337 16.608475572686697 M72.09061008538906 16.22104325355538 C71.86846915691142 16.302793168683387, 71.64632822843376 16.38454308381139, 71.03783131541337 16.608475572686697 M71.03783131541337 16.608475572686697 C70.7843346340485 16.683712057084556, 70.53083795268364 16.758948541482418, 69.9623927184164 16.927660103183012 M71.03783131541337 16.608475572686697 C70.7605019328318 16.690785477705273, 70.48317255025023 16.77309538272385, 69.9623927184164 16.927660103183012 M69.9623927184164 16.927660103183012 C69.64269168553434 17.00062977769413, 69.32299065265231 17.073599452205247, 68.86871350227402 17.177285247343644 M69.9623927184164 16.927660103183012 C69.69374784855621 16.98897654165699, 69.42510297869605 17.050292980130966, 68.86871350227402 17.177285247343644 M68.86871350227402 17.177285247343644 C68.42869919115954 17.248423348802685, 67.98868488004506 17.31956145026173, 67.76128782947886 17.356325241906806 M68.86871350227402 17.177285247343644 C68.62730349649742 17.216314544915047, 68.38589349072082 17.255343842486454, 67.76128782947886 17.356325241906806 M67.76128782947886 17.356325241906806 C67.53371658451334 17.378278766214166, 67.30614533954781 17.400232290521522, 66.64466634966247 17.464044373130886 M67.76128782947886 17.356325241906806 C67.53437011806777 17.378215720618158, 67.30745240665667 17.40010619932951, 66.64466634966247 17.464044373130886 M66.64466634966247 17.464044373130886 C66.359692635299 17.47318292548284, 66.07471892093551 17.482321477834788, 65.5234375 17.5 M66.64466634966247 17.464044373130886 C66.41392838015707 17.47144369070871, 66.18319041065169 17.47884300828654, 65.5234375 17.5 M65.5234375 17.5 C65.5234375 17.5, 65.5234375 17.5, 65.5234375 17.5 M65.5234375 17.5 C65.5234375 17.5, 65.5234375 17.5, 65.5234375 17.5 M65.5234375 17.5 C21.37674692367606 17.5, -22.769943652647882 17.5, -65.5234375 17.5 M65.5234375 17.5 C32.892587025492645 17.5, 0.26173655098529025 17.5, -65.5234375 17.5 M-65.5234375 17.5 C-65.93881084418352 17.4866797853272, -66.35418418836703 17.473359570654402, -66.64466634966247 17.464044373130886 M-65.5234375 17.5 C-65.79328593183727 17.491346486019086, -66.06313436367455 17.482692972038176, -66.64466634966247 17.464044373130886 M-66.64466634966247 17.464044373130886 C-67.00580645350348 17.429205621647863, -67.36694655734449 17.39436687016484, -67.76128782947886 17.356325241906806 M-66.64466634966247 17.464044373130886 C-67.05962852174203 17.4240134714554, -67.4745906938216 17.38398256977991, -67.76128782947886 17.356325241906806 M-67.76128782947886 17.356325241906806 C-68.12622130265406 17.29732562806519, -68.49115477582924 17.23832601422358, -68.86871350227402 17.177285247343644 M-67.76128782947886 17.356325241906806 C-68.18718730161363 17.28746911815179, -68.6130867737484 17.218612994396775, -68.86871350227402 17.177285247343644 M-68.86871350227402 17.177285247343644 C-69.1844580526229 17.105218614152257, -69.50020260297178 17.033151980960874, -69.96239271841637 16.927660103183015 M-68.86871350227402 17.177285247343644 C-69.2236288568367 17.096278133703844, -69.57854421139939 17.015271020064045, -69.96239271841637 16.927660103183015 M-69.96239271841637 16.927660103183015 C-70.20911278786546 16.8544348816306, -70.45583285731455 16.78120966007818, -71.03783131541336 16.608475572686704 M-69.96239271841637 16.927660103183015 C-70.32516145999952 16.81999224489312, -70.68793020158267 16.712324386603225, -71.03783131541336 16.608475572686704 M-71.03783131541336 16.608475572686704 C-71.3425911961831 16.496321119393986, -71.64735107695282 16.38416666610127, -72.09061008538905 16.22104325355538 M-71.03783131541336 16.608475572686704 C-71.28759763315746 16.51655925894234, -71.53736395090156 16.42464294519798, -72.09061008538905 16.22104325355538 M-72.09061008538905 16.22104325355538 C-72.3167062963297 16.120957167877755, -72.54280250727035 16.02087108220013, -73.11640293455727 15.766955188292338 M-72.09061008538905 16.22104325355538 C-72.43575105388392 16.068259585045766, -72.7808920223788 15.915475916536154, -73.11640293455727 15.766955188292338 M-73.11640293455727 15.766955188292338 C-73.44582778791215 15.595094453303789, -73.77525264126702 15.423233718315238, -74.11099466006891 15.248077322159318 M-73.11640293455727 15.766955188292338 C-73.35929104029078 15.640240619108416, -73.60217914602431 15.513526049924497, -74.11099466006891 15.248077322159318 M-74.11099466006891 15.248077322159318 C-74.31026105745693 15.127280861043372, -74.50952745484493 15.006484399927428, -75.07029827118458 14.666541835607218 M-74.11099466006891 15.248077322159318 C-74.47916389166626 15.024890970362444, -74.8473331232636 14.80170461856557, -75.07029827118458 14.666541835607218 M-75.07029827118458 14.666541835607218 C-75.35978893666878 14.464605679214374, -75.64927960215297 14.262669522821533, -75.99037178359627 14.024738382689243 M-75.07029827118458 14.666541835607218 C-75.38205063851369 14.449076879700904, -75.6938030058428 14.23161192379459, -75.99037178359627 14.024738382689243 M-75.99037178359627 14.024738382689243 C-76.31605845324924 13.765011930527274, -76.6417451229022 13.505285478365307, -76.8674344178863 13.325304271459856 M-75.99037178359627 14.024738382689243 C-76.20357465533546 13.854714766043935, -76.41677752707464 13.684691149398628, -76.8674344178863 13.325304271459856 M-76.8674344178863 13.325304271459856 C-77.0557491362999 13.154281826731046, -77.24406385471349 12.983259382002235, -77.697882135561 12.571113626710241 M-76.8674344178863 13.325304271459856 C-77.10548346265934 13.10911442742956, -77.34353250743239 12.892924583399264, -77.697882135561 12.571113626710241 M-77.697882135561 12.571113626710241 C-78.00824765786481 12.250635743448282, -78.31861318016864 11.930157860186322, -78.47830244881803 11.765265579573043 M-77.697882135561 12.571113626710241 C-78.00829735502899 12.250584427046064, -78.31871257449697 11.930055227381885, -78.47830244881803 11.765265579573043 M-78.47830244881803 11.765265579573043 C-78.69572040771719 11.509874073617748, -78.91313836661637 11.254482567662455, -79.20548844319052 10.91107153252784 M-78.47830244881803 11.765265579573043 C-78.73681280250449 11.461604608477096, -78.99532315619095 11.157943637381146, -79.20548844319052 10.91107153252784 M-79.20548844319052 10.91107153252784 C-79.44009439124636 10.596720935174567, -79.6747003393022 10.282370337821291, -79.87645195544673 10.012041552137974 M-79.20548844319052 10.91107153252784 C-79.40781549461813 10.63997171598841, -79.61014254604575 10.368871899448981, -79.87645195544673 10.012041552137974 M-79.87645195544673 10.012041552137974 C-80.07009275863429 9.714557278605568, -80.26373356182184 9.417073005073162, -80.48843585259355 9.071869945434198 M-79.87645195544673 10.012041552137974 C-80.05248042000116 9.741614560321166, -80.2285088845556 9.471187568504357, -80.48843585259355 9.071869945434198 M-80.48843585259355 9.071869945434198 C-80.62107778442173 8.836350764021226, -80.75371971624989 8.600831582608254, -81.0389253615275 8.094420079214618 M-80.48843585259355 9.071869945434198 C-80.6987203569981 8.698488514248858, -80.90900486140265 8.325107083063518, -81.0389253615275 8.094420079214618 M-81.0389253615275 8.094420079214618 C-81.18835497008695 7.784126299759491, -81.3377845786464 7.473832520304364, -81.52565840277671 7.083708504641898 M-81.0389253615275 8.094420079214618 C-81.21801505523774 7.722536498319729, -81.39710474894797 7.35065291742484, -81.52565840277671 7.083708504641898 M-81.52565840277671 7.083708504641898 C-81.68821360616265 6.682194009487577, -81.8507688095486 6.280679514333256, -81.94663488587081 6.043888452372894 M-81.52565840277671 7.083708504641898 C-81.66866516209271 6.730479044283779, -81.81167192140872 6.377249583925661, -81.94663488587081 6.043888452372894 M-81.94663488587081 6.043888452372894 C-82.05146659357085 5.728152051444721, -82.1562983012709 5.412415650516548, -82.30012492814156 4.979232766043068 M-81.94663488587081 6.043888452372894 C-82.08582902486818 5.624657883287078, -82.22502316386554 5.205427314201263, -82.30012492814156 4.979232766043068 M-82.30012492814156 4.979232766043068 C-82.37766140729606 4.683552566504286, -82.45519788645058 4.387872366965503, -82.58467596318191 3.8941163442355062 M-82.30012492814156 4.979232766043068 C-82.39267687954492 4.626292063072579, -82.48522883094827 4.273351360102089, -82.58467596318191 3.8941163442355062 M-82.58467596318191 3.8941163442355062 C-82.63140920640448 3.654151017362068, -82.67814244962705 3.4141856904886296, -82.79911870975288 2.7929981630841447 M-82.58467596318191 3.8941163442355062 C-82.6593607149319 3.5106259286271104, -82.73404546668192 3.127135513018714, -82.79911870975288 2.7929981630841447 M-82.79911870975288 2.7929981630841447 C-82.84615525025069 2.428192043398554, -82.89319179074852 2.063385923712964, -82.94257197661096 1.680402953384444 M-82.79911870975288 2.7929981630841447 C-82.8337069167112 2.524738860129462, -82.86829512366951 2.2564795571747793, -82.94257197661096 1.680402953384444 M-82.94257197661096 1.680402953384444 C-82.95713287355471 1.4536052301409654, -82.97169377049848 1.2268075068974869, -83.01444628351203 0.5609026075039676 M-82.94257197661096 1.680402953384444 C-82.96831892342036 1.2793734742666567, -82.99406587022976 0.8783439951488696, -83.01444628351203 0.5609026075039676 M-83.01444628351203 0.5609026075039676 C-83.01444628351203 0.13306194269635424, -83.01444628351203 -0.2947787221112591, -83.01444628351203 -0.560902607503959 M-83.01444628351203 0.5609026075039676 C-83.01444628351203 0.1451045299255962, -83.01444628351203 -0.2706935476527752, -83.01444628351203 -0.560902607503959 M-83.01444628351203 -0.560902607503959 C-82.9985183274984 -0.8089933792308002, -82.98259037148479 -1.0570841509576414, -82.94257197661096 -1.6804029533844198 M-83.01444628351203 -0.560902607503959 C-82.98931599021167 -0.9523272104647889, -82.9641856969113 -1.3437518134256186, -82.94257197661096 -1.6804029533844198 M-82.94257197661096 -1.6804029533844198 C-82.88997288306784 -2.0883511360390314, -82.83737378952472 -2.4962993186936426, -82.79911870975288 -2.7929981630841367 M-82.94257197661096 -1.6804029533844198 C-82.89689079034204 -2.0346972133156944, -82.8512096040731 -2.388991473246969, -82.79911870975288 -2.7929981630841367 M-82.79911870975288 -2.7929981630841367 C-82.74011572283531 -3.0959660306201258, -82.68111273591775 -3.398933898156115, -82.58467596318191 -3.894116344235498 M-82.79911870975288 -2.7929981630841367 C-82.7206222168416 -3.1960610639438305, -82.64212572393035 -3.5991239648035243, -82.58467596318191 -3.894116344235498 M-82.58467596318191 -3.894116344235498 C-82.47240984082845 -4.322235725214479, -82.36014371847499 -4.75035510619346, -82.30012492814157 -4.979232766043059 M-82.58467596318191 -3.894116344235498 C-82.52218690961622 -4.1324141884085765, -82.45969785605055 -4.370712032581655, -82.30012492814157 -4.979232766043059 M-82.30012492814157 -4.979232766043059 C-82.19364746800306 -5.2999259111008215, -82.08717000786457 -5.620619056158583, -81.94663488587081 -6.0438884523728715 M-82.30012492814157 -4.979232766043059 C-82.20642019007828 -5.261456507267203, -82.11271545201498 -5.543680248491348, -81.94663488587081 -6.0438884523728715 M-81.94663488587081 -6.0438884523728715 C-81.85120126365787 -6.2796113443223955, -81.75576764144493 -6.51533423627192, -81.52565840277671 -7.083708504641889 M-81.94663488587081 -6.0438884523728715 C-81.81618713147799 -6.366096927758881, -81.68573937708518 -6.6883054031448905, -81.52565840277671 -7.083708504641889 M-81.52565840277671 -7.083708504641889 C-81.33739818875748 -7.4746348671761185, -81.14913797473825 -7.865561229710348, -81.0389253615275 -8.094420079214611 M-81.52565840277671 -7.083708504641889 C-81.33167476660863 -7.48651967572984, -81.13769113044053 -7.889330846817791, -81.0389253615275 -8.094420079214611 M-81.0389253615275 -8.094420079214611 C-80.9142321674073 -8.315825471930111, -80.7895389732871 -8.53723086464561, -80.48843585259355 -9.071869945434193 M-81.0389253615275 -8.094420079214611 C-80.87531754127004 -8.384922331170017, -80.71170972101257 -8.675424583125421, -80.48843585259355 -9.071869945434193 M-80.48843585259355 -9.071869945434193 C-80.36465320605586 -9.26203333081077, -80.24087055951816 -9.452196716187348, -79.87645195544673 -10.012041552137969 M-80.48843585259355 -9.071869945434193 C-80.31930626916133 -9.331698403238317, -80.1501766857291 -9.591526861042441, -79.87645195544673 -10.012041552137969 M-79.87645195544673 -10.012041552137969 C-79.6878681263724 -10.264726702757306, -79.49928429729808 -10.517411853376643, -79.20548844319052 -10.911071532527835 M-79.87645195544673 -10.012041552137969 C-79.61889523259303 -10.357144096861761, -79.36133850973934 -10.702246641585553, -79.20548844319052 -10.911071532527835 M-79.20548844319052 -10.911071532527835 C-78.96795718813937 -11.190089260622218, -78.73042593308823 -11.4691069887166, -78.47830244881803 -11.765265579573038 M-79.20548844319052 -10.911071532527835 C-78.97912814474981 -11.176967219342153, -78.75276784630911 -11.44286290615647, -78.47830244881803 -11.765265579573038 M-78.47830244881803 -11.765265579573038 C-78.28102075727394 -11.96897512322042, -78.08373906572983 -12.172684666867802, -77.69788213556102 -12.571113626710224 M-78.47830244881803 -11.765265579573038 C-78.30467293594933 -11.944552306858082, -78.13104342308064 -12.123839034143126, -77.69788213556102 -12.571113626710224 M-77.69788213556102 -12.571113626710224 C-77.37960948605973 -12.860160425954438, -77.06133683655847 -13.149207225198653, -76.86743441788632 -13.32530427145984 M-77.69788213556102 -12.571113626710224 C-77.5043390675958 -12.746884320167274, -77.31079599963059 -12.922655013624322, -76.86743441788632 -13.32530427145984 M-76.86743441788632 -13.32530427145984 C-76.55578471279914 -13.573836617919909, -76.24413500771198 -13.822368964379976, -75.99037178359629 -14.024738382689236 M-76.86743441788632 -13.32530427145984 C-76.62404236576805 -13.519402956089635, -76.38065031364978 -13.71350164071943, -75.99037178359629 -14.024738382689236 M-75.99037178359629 -14.024738382689236 C-75.8042224239594 -14.154588117696026, -75.61807306432252 -14.284437852702814, -75.07029827118461 -14.666541835607205 M-75.99037178359629 -14.024738382689236 C-75.76126433350375 -14.18455382197213, -75.53215688341119 -14.344369261255027, -75.07029827118461 -14.666541835607205 M-75.07029827118461 -14.666541835607205 C-74.77670537921202 -14.844519572064337, -74.48311248723941 -15.022497308521471, -74.11099466006891 -15.248077322159313 M-75.07029827118461 -14.666541835607205 C-74.87719966180512 -14.783599347386435, -74.68410105242565 -14.900656859165663, -74.11099466006891 -15.248077322159313 M-74.11099466006891 -15.248077322159313 C-73.85247011056906 -15.38294941404051, -73.5939455610692 -15.517821505921708, -73.11640293455727 -15.766955188292332 M-74.11099466006891 -15.248077322159313 C-73.72749503643382 -15.44814883016651, -73.34399541279872 -15.648220338173706, -73.11640293455727 -15.766955188292332 M-73.11640293455727 -15.766955188292332 C-72.76124951517355 -15.924171071801641, -72.4060960957898 -16.08138695531095, -72.09061008538906 -16.221043253555376 M-73.11640293455727 -15.766955188292332 C-72.71558344883461 -15.94438608473416, -72.31476396311194 -16.12181698117599, -72.09061008538906 -16.221043253555376 M-72.09061008538906 -16.221043253555376 C-71.81362549563299 -16.32297614300309, -71.53664090587692 -16.4249090324508, -71.03783131541337 -16.608475572686697 M-72.09061008538906 -16.221043253555376 C-71.688594187149 -16.368988820301947, -71.28657828890891 -16.51693438704852, -71.03783131541337 -16.608475572686697 M-71.03783131541337 -16.608475572686697 C-70.7517217483646 -16.693391390367008, -70.46561218131582 -16.77830720804732, -69.9623927184164 -16.92766010318301 M-71.03783131541337 -16.608475572686697 C-70.73552719218284 -16.69819784963479, -70.43322306895232 -16.78792012658289, -69.9623927184164 -16.92766010318301 M-69.9623927184164 -16.92766010318301 C-69.62066654848421 -17.00565687149837, -69.27894037855202 -17.08365363981373, -68.86871350227402 -17.17728524734364 M-69.9623927184164 -16.92766010318301 C-69.62583729979464 -17.00447668125407, -69.28928188117288 -17.08129325932513, -68.86871350227402 -17.17728524734364 M-68.86871350227402 -17.17728524734364 C-68.62853907326219 -17.21611478644576, -68.38836464425036 -17.25494432554788, -67.76128782947887 -17.356325241906806 M-68.86871350227402 -17.17728524734364 C-68.53199961911798 -17.231722536717147, -68.19528573596196 -17.28615982609065, -67.76128782947887 -17.356325241906806 M-67.76128782947887 -17.356325241906806 C-67.43162027177908 -17.388127874714858, -67.10195271407929 -17.419930507522913, -66.64466634966247 -17.464044373130886 M-67.76128782947887 -17.356325241906806 C-67.49918325418058 -17.38161015505896, -67.23707867888228 -17.406895068211117, -66.64466634966247 -17.464044373130886 M-66.64466634966247 -17.464044373130886 C-66.37503365233894 -17.472690968925843, -66.10540095501543 -17.481337564720803, -65.5234375 -17.5 M-66.64466634966247 -17.464044373130886 C-66.37467454129724 -17.472702484917985, -66.104682732932 -17.481360596705084, -65.5234375 -17.5 M-65.5234375 -17.5 C-65.5234375 -17.5, -65.5234375 -17.5, -65.5234375 -17.5 M-65.5234375 -17.5 C-65.5234375 -17.5, -65.5234375 -17.5, -65.5234375 -17.5" stroke="var(--arch-border)" stroke-width="1.3" fill="none" stroke-dasharray="0 0" style=""/></g><g class="label" style="" transform="translate(-71.6484375, -10.5)"><rect/><foreignObject width="143.296875" height="21"><div xmlns="http://www.w3.org/1999/xhtml" style="display: table-cell; white-space: nowrap; line-height: 1.5; max-width: 200px; text-align: center;"><span class="nodeLabel"><p>Friends, anywhere</p></span></div></foreignObject></g></g><g class="node default" id="portal-architecture-flowchart-globe-1" data-look="classic" transform="translate(164.68359375, 137.38355255126953)"><rect class="basic label-container" style="" x="-78.578125" y="-24.5" width="157.15625" height="49"/><g class="label" style="" transform="translate(-50.578125, -10.5)"><rect/><foreignObject width="101.15625" height="21"><div xmlns="http://www.w3.org/1999/xhtml" style="display: table-cell; white-space: nowrap; line-height: 1.5; max-width: 200px; text-align: center;"><span class="nodeLabel"><p>WebGL2 globe</p></span></div></foreignObject></g></g><g class="node default" id="portal-architecture-flowchart-pip-2" data-look="classic" transform="translate(406.41015625, 414.1008529663086)"><rect class="basic label-container" style="" x="-108.078125" y="-24.5" width="216.15625" height="49"/><g class="label" style="" transform="translate(-80.078125, -10.5)"><rect/><foreignObject width="160.15625" height="21"><div xmlns="http://www.w3.org/1999/xhtml" style="display: table-cell; white-space: nowrap; line-height: 1.5; max-width: 200px; text-align: center;"><span class="nodeLabel"><p>Pip, the trip agent</p></span></div></foreignObject></g></g><g class="node default live" id="portal-architecture-flowchart-room-3" data-look="classic" transform="translate(406.41015625, 282.4339790344238)"><path d="M0,15.11124845488257 a95.5078125,15.11124845488257 0,0,0 191.015625,0 a95.5078125,15.11124845488257 0,0,0 -191.015625,0 l0,71.11124845488257 a95.5078125,15.11124845488257 0,0,0 191.015625,0 l0,-71.11124845488257" class="basic label-container outer-path" style="fill:var(--arch-accent-bg) !important;stroke:var(--arch-accent) !important" transform="translate(-95.5078125, -50.666872682323856)"/><g class="label" style="color:var(--arch-accent-text) !important" transform="translate(-88.5078125, -11.666666666666666)"><rect/><foreignObject width="177.015625" height="42"><div style="color: rgb(225, 242, 163) !important; display: table-cell; white-space: nowrap; line-height: 1.5; max-width: 200px; text-align: center;" xmlns="http://www.w3.org/1999/xhtml"><span style="color:var(--arch-accent-text) !important" class="nodeLabel"><p>Liveblocks room<br />plan · cursors · chat</p></span></div></foreignObject></g></g><g class="node default" id="portal-architecture-flowchart-search-4" data-look="classic" transform="translate(128.71875, 519.6008529663086)"><rect class="basic label-container" style="" x="-78.578125" y="-24.5" width="157.15625" height="49"/><g class="label" style="" transform="translate(-50.578125, -10.5)"><rect/><foreignObject width="101.15625" height="21"><div xmlns="http://www.w3.org/1999/xhtml" style="display: table-cell; white-space: nowrap; line-height: 1.5; max-width: 200px; text-align: center;"><span class="nodeLabel"><p>Route search</p></span></div></foreignObject></g></g><g class="node default" id="portal-architecture-flowchart-book-5" data-look="classic" transform="translate(164.68359375, 282.4339790344238)"><rect class="basic label-container" style="" x="-57.5078125" y="-24.5" width="115.015625" height="49"/><g class="label" style="" transform="translate(-29.5078125, -10.5)"><rect/><foreignObject width="59.015625" height="21"><div xmlns="http://www.w3.org/1999/xhtml" style="display: table-cell; white-space: nowrap; line-height: 1.5; max-width: 200px; text-align: center;"><span class="nodeLabel"><p>Booking</p></span></div></foreignObject></g></g><g class="node default" id="portal-architecture-flowchart-providers-6" data-look="classic" transform="translate(128.71875, 625.1008529663086)"><rect class="basic label-container" style="" x="-120.71875" y="-35" width="241.4375" height="70"/><g class="label" style="" transform="translate(-92.71875, -21)"><rect/><foreignObject width="185.4375" height="42"><div xmlns="http://www.w3.org/1999/xhtml" style="display: table-cell; white-space: nowrap; line-height: 1.5; max-width: 200px; text-align: center;"><span class="nodeLabel"><p>Duffel · Travelpayouts<br />rail and bus feeds</p></span></div></foreignObject></g></g><g class="node default" id="portal-architecture-flowchart-pay-7" data-look="classic" transform="translate(164.68359375, 414.1008529663086)"><rect class="basic label-container" style="" x="-99.6484375" y="-35" width="199.296875" height="70"/><g class="label" style="" transform="translate(-71.6484375, -21)"><rect/><foreignObject width="143.296875" height="42"><div xmlns="http://www.w3.org/1999/xhtml" style="display: table-cell; white-space: nowrap; line-height: 1.5; max-width: 200px; text-align: center;"><span class="nodeLabel"><p>Duffel orders<br />Stripe card holds</p></span></div></foreignObject></g></g><g class="node default" id="portal-architecture-flowchart-accounts-8" data-look="classic" transform="translate(351.69140625, 137.38355255126953)"><path d="M0,13.589034061733328 a74.4296875,13.589034061733328 0,0,0 148.859375,0 a74.4296875,13.589034061733328 0,0,0 -148.859375,0 l0,69.58903406173333 a74.4296875,13.589034061733328 0,0,0 148.859375,0 l0,-69.58903406173333" class="basic label-container outer-path" style="" transform="translate(-74.4296875, -48.383551092599994)"/><g class="label" style="" transform="translate(-67.4296875, -11.666666666666666)"><rect/><foreignObject width="134.859375" height="42"><div xmlns="http://www.w3.org/1999/xhtml" style="display: table-cell; white-space: nowrap; line-height: 1.5; max-width: 200px; text-align: center;"><span class="nodeLabel"><p>Supabase<br />accounts · trips</p></span></div></foreignObject></g></g></g></g></g><defs></defs><defs></defs><linearGradient id="portal-architecture-gradient" gradientUnits="objectBoundingBox" x1="0%" y1="0%" x2="100%" y2="0%"><stop offset="0%" stop-color="var(--arch-border)" stop-opacity="1"/><stop offset="100%" stop-color="hsl(-120, 0%, 0%)" stop-opacity="1"/></linearGradient></svg>