<svg width="1100" height="285" viewBox="0 0 1100 285" fill="none" xmlns="http://www.w3.org/2000/svg">
<path d="M238 0H249L257 7L259 10L260 22L264 32L265 51L268 63L269 65L284 69L292 73L305 85L313 92L318 100L321 106V120L318 125L312 127L307 135L302 140L287 155L281 158L276 164L275 170L276 173V181L280 190L281 196L282 208L281 209V216L282 219V228L280 235L279 236V244L277 250L266 258L263 260L260 268L259 269H253L248 264L242 256L238 249L237 243L236 204V200L228 201L222 205L216 210H214V212L209 217L204 223L199 228L192 236L188 246L183 253L180 259H178L179 268L169 276L164 278L154 285L148 283L138 273L135 265L126 249V243L131 235L133 229L134 217L146 197L148 191H150L153 182L159 173L165 159L169 151L171 148L170 145L164 150L154 156L150 159L142 163L136 167L121 173L112 180L103 186L91 190L80 197L70 202L61 208L53 215L45 222L29 227L19 231L9 226L3 219L0 216L-2 211V204L4 195L15 187L23 178L31 172L42 168L56 160L71 151L75 148L85 143L94 137L102 133L106 130L117 124L131 115L148 105L163 101L180 102L191 92L195 84L198 75L204 68L208 54L212 44L220 29L223 17L228 8L232 3L238 0ZM273 100L272 101L273 123L278 121L281 115L282 107L280 102L278 100H273ZM217 124L209 131L199 153L195 157V160L198 161L197 166L192 179L188 184L185 193V196L189 195L195 188L199 180L206 175L213 167V165L217 163L227 156L228 152L227 137L226 127L222 124H217Z" fill="black"/>
<path d="M978 24L986 25L992 28L996 31L1001 34L1005 39L1009 57L1015 55L1024 51L1032 45L1051 43L1066 42L1073 48L1078 53L1084 57L1093 59L1100 71L1099 74L1097 75L1095 87L1090 101L1083 107L1078 116L1076 120L1072 122L1069 128L1064 133H1062V135H1059L1057 140L1051 149L1047 151L1042 156L1039 163L1029 171L1028 174L1023 177H1021L1019 185V195L1023 200L1032 204L1041 207L1047 216L1051 225L1053 230L1052 238L1049 242L1046 250L1042 256L1036 261H1027L1015 255L999 247L995 243L994 238L988 240L986 249L972 256L963 255L955 250L946 240L945 226L948 222L950 215L954 210V200H956V202H958L955 196V194L945 198L941 201L932 204L923 210L916 209L915 217L909 225H907L905 231L902 236L892 238L885 237L877 231L871 224L869 216L870 210L872 205L874 195L877 190L883 185H885L886 178L891 173H893V166L899 156L902 150L905 147H908L910 140L912 138L910 137L912 132L916 126H918L917 123L926 109L929 105L928 97L934 95L937 90L938 81L943 74H946L945 68L949 65L952 59L953 54L956 51L958 48L959 43L961 38L966 34L968 29L978 24ZM1036 82L1028 86L1019 92L1014 94L1010 103V140L1017 134L1024 122L1029 118L1033 112L1040 104L1041 102L1042 100L1043 98L1047 94L1049 89V84L1041 82H1036ZM967 145.5L962 151L961.5 157L965.5 159H977.5V146.5L975 139H971L967 145.5Z" fill="black"/>
<path d="M618 15H627L633 18L638 23L642 30L644 49L645 56L655 53L669 50H679L688 48H703L713 52L721 59L725 63V65H727L728 67V77L725 82L723 95L719 108L716 111L713 120L708 125L705 126L703 131L695 140L692 151L687 154L683 156L681 160L677 167L672 172L670 179L675 191L683 201L689 210L694 223L697 226V235L700 238L698 250L696 255L688 265L687 268L682 271L677 270L663 261L658 257L655 252L650 247L649 246L648 237L645 232L643 223L640 219L637 218L635 222L629 223L621 230L612 236L598 243L585 248L578 250H558L555 245L553 240L549 238L547 236L548 229L551 224L555 219L563 215L571 211L577 210L583 207L593 205L601 197L607 193L615 187L620 182L622 181L621 177L611 166L602 161L588 152L577 149H571L568 152H566L564 157L559 165L552 187L549 192L545 200L542 211L534 227L525 239L515 245L512 247L507 246L497 241L490 234L488 230L487 215L496 208L502 197H504L506 193L511 188L518 178L523 170L524 163L527 158L521 157L512 151L506 144L501 139L498 136L499 131L503 121L517 114L525 111L542 105L559 95L569 87L572 79L577 72L580 65L585 55L588 48L594 40L596 30L605 19L609 17L618 15ZM680 80L677 81V83L672 84L669 85L656 86L653 89V91H651L649 96L647 107L650 126L655 142H658L662 138L671 123L677 115L680 109L684 102L689 98L690 95V83L686 82L684 80H680ZM609 107.5L596.5 116L595 120L604.5 121L607 121.5L609 122L612 127L622 128V119L619 116L621 111.5V109.5L618 107.5H609Z" fill="black"/>
</svg>
