<svg width="1016" height="335" viewBox="0 0 1016 335" fill="none" xmlns="http://www.w3.org/2000/svg">
<path d="M933 0H944L952 7L954 10L955 22L959 32L960 51L963 63L964 65L979 69L987 73L1000 85L1008 92L1013 100L1016 106V120L1013 125L1007 127L1002 135L997 140L982 155L976 158L971 164L970 170L971 173V181L975 190L976 196L977 208L976 209V216L977 219V228L975 235L974 236V244L972 250L961 258L958 260L955 268L954 269H948L943 264L937 256L933 249L932 243L931 204V200L923 201L917 205L911 210H909V212L904 217L899 223L894 228L887 236L883 246L878 253L875 259H873L874 268L864 276L859 278L849 285L843 283L833 273L830 265L821 249V243L826 235L828 229L829 217L841 197L843 191H845L848 182L854 173L860 159L864 151L866 148L865 145L859 150L849 156L845 159L837 163L831 167L816 173L807 180L798 186L786 190L775 197L765 202L756 208L748 215L740 222L724 227L714 231L704 226L698 219L695 216L693 211V204L699 195L710 187L718 178L726 172L737 168L751 160L766 151L770 148L780 143L789 137L797 133L801 130L812 124L826 115L843 105L858 101L875 102L886 92L890 84L893 75L899 68L903 54L907 44L915 29L918 17L923 8L927 3L933 0ZM968 100L967 101L968 123L973 121L976 115L977 107L975 102L973 100H968ZM912 124L904 131L894 153L890 157V160L893 161L892 166L887 179L883 184L880 193V196L884 195L890 188L894 180L901 175L908 167V165L912 163L922 156L923 152L922 137L921 127L917 124H912Z" fill="#171511"/>
<path d="M131 79H140L146 82L151 87L155 94L157 113L158 120L168 117L182 114H192L201 112H216L226 116L234 123L238 127V129H240L241 131V141L238 146L236 159L232 172L229 175L226 184L221 189L218 190L216 195L208 204L205 215L200 218L196 220L194 224L190 231L185 236L183 243L188 255L196 265L202 274L207 287L210 290V299L213 302L211 314L209 319L201 329L200 332L195 335L190 334L176 325L171 321L168 316L163 311L162 310L161 301L158 296L156 287L153 283L150 282L148 286L142 287L134 294L125 300L111 307L98 312L91 314H71L68 309L66 304L62 302L60 300L61 293L64 288L68 283L76 279L84 275L90 274L96 271L106 269L114 261L120 257L128 251L133 246L135 245L134 241L124 230L115 225L101 216L90 213H84L81 216H79L77 221L72 229L65 251L62 256L58 264L55 275L47 291L38 303L28 309L25 311L20 310L10 305L3 298L1 294L0 279L9 272L15 261H17L19 257L24 252L31 242L36 234L37 227L40 222L34 221L25 215L19 208L14 203L11 200L12 195L16 185L30 178L38 175L55 169L72 159L82 151L85 143L90 136L93 129L98 119L101 112L107 104L109 94L118 83L122 81L131 79ZM193 144L190 145V147L185 148L182 149L169 150L166 153V155H164L162 160L160 171L163 190L168 206H171L175 202L184 187L190 179L193 173L197 166L202 162L203 159V147L199 146L197 144H193ZM122 171.5L109.5 180L108 184L117.5 185L120 185.5L122 186L125 191L135 192V183L132 180L134 175.5V173.5L131 171.5H122Z" fill="#161310"/>
<path d="M515 57L523 58L529 61L533 64L538 67L542 72L546 90L552 88L561 84L569 78L588 76L603 75L610 81L615 86L621 90L630 92L637 104L636 107L634 108L632 120L627 134L620 140L615 149L613 153L609 155L606 161L601 166H599V168H596L594 173L588 182L584 184L579 189L576 196L566 204L565 207L560 210H558L556 218V228L560 233L569 237L578 240L584 249L588 258L590 263L589 271L586 275L583 283L579 289L573 294H564L552 288L536 280L532 276L531 271L525 273L523 282L509 289L500 288L492 283L483 273L482 259L485 255L487 248L491 243V233H493V235H495L492 229V227L482 231L478 234L469 237L460 243L453 242L452 250L446 258H444L442 264L439 269L429 271L422 270L414 264L408 257L406 249L407 243L409 238L411 228L414 223L420 218H422L423 211L428 206H430V199L436 189L439 183L442 180H445L447 173L449 171L447 170L449 165L453 159H455L454 156L463 142L466 138L465 130L471 128L474 123L475 114L480 107H483L482 101L486 98L489 92L490 87L493 84L495 81L496 76L498 71L503 67L505 62L515 57ZM573 115L565 119L556 125L551 127L547 136V173L554 167L561 155L566 151L570 145L577 137L578 135L579 133L580 131L584 127L586 122V117L578 115H573ZM504 178.5L499 184L498.5 190L502.5 192H514.5V179.5L512 172H508L504 178.5Z" fill="#161511"/>
</svg>
