<svg width="1079" height="285" viewBox="0 0 1079 285" fill="none" xmlns="http://www.w3.org/2000/svg">
<path d="M217 0H228L236 7L238 10L239 22L243 32L244 51L247 63L248 65L263 69L271 73L284 85L292 92L297 100L300 106V120L297 125L291 127L286 135L281 140L266 155L260 158L255 164L254 170L255 173V181L259 190L260 196L261 208L260 209V216L261 219V228L259 235L258 236V244L256 250L245 258L242 260L239 268L238 269H232L227 264L221 256L217 249L216 243L215 204V200L207 201L201 205L195 210H193V212L188 217L183 223L178 228L171 236L167 246L162 253L159 259H157L158 268L148 276L143 278L133 285L127 283L117 273L114 265L105 249V243L110 235L112 229L113 217L125 197L127 191H129L132 182L138 173L144 159L148 151L150 148L149 145L143 150L133 156L129 159L121 163L115 167L100 173L91 180L82 186L70 190L59 197L49 202L40 208L32 215L24 222L8 227L-2 231L-12 226L-18 219L-21 216L-23 211V204L-17 195L-6 187L2 178L10 172L21 168L35 160L50 151L54 148L64 143L73 137L81 133L85 130L96 124L110 115L127 105L142 101L159 102L170 92L174 84L177 75L183 68L187 54L191 44L199 29L202 17L207 8L211 3L217 0ZM252 100L251 101L252 123L257 121L260 115L261 107L259 102L257 100H252ZM196 124L188 131L178 153L174 157V160L177 161L176 166L171 179L167 184L164 193V196L168 195L174 188L178 180L185 175L192 167V165L196 163L206 156L207 152L206 137L205 127L201 124H196Z" fill="white"/>
<path d="M957 24L965 25L971 28L975 31L980 34L984 39L988 57L994 55L1003 51L1011 45L1030 43L1045 42L1052 48L1057 53L1063 57L1072 59L1079 71L1078 74L1076 75L1074 87L1069 101L1062 107L1057 116L1055 120L1051 122L1048 128L1043 133H1041V135H1038L1036 140L1030 149L1026 151L1021 156L1018 163L1008 171L1007 174L1002 177H1000L998 185V195L1002 200L1011 204L1020 207L1026 216L1030 225L1032 230L1031 238L1028 242L1025 250L1021 256L1015 261H1006L994 255L978 247L974 243L973 238L967 240L965 249L951 256L942 255L934 250L925 240L924 226L927 222L929 215L933 210V200H935V202H937L934 196V194L924 198L920 201L911 204L902 210L895 209L894 217L888 225H886L884 231L881 236L871 238L864 237L856 231L850 224L848 216L849 210L851 205L853 195L856 190L862 185H864L865 178L870 173H872V166L878 156L881 150L884 147H887L889 140L891 138L889 137L891 132L895 126H897L896 123L905 109L908 105L907 97L913 95L916 90L917 81L922 74H925L924 68L928 65L931 59L932 54L935 51L937 48L938 43L940 38L945 34L947 29L957 24ZM1015 82L1007 86L998 92L993 94L989 103V140L996 134L1003 122L1008 118L1012 112L1019 104L1020 102L1021 100L1022 98L1026 94L1028 89V84L1020 82H1015ZM946 145.5L941 151L940.5 157L944.5 159H956.5V146.5L954 139H950L946 145.5Z" fill="white"/>
<path d="M597 15H606L612 18L617 23L621 30L623 49L624 56L634 53L648 50H658L667 48H682L692 52L700 59L704 63V65H706L707 67V77L704 82L702 95L698 108L695 111L692 120L687 125L684 126L682 131L674 140L671 151L666 154L662 156L660 160L656 167L651 172L649 179L654 191L662 201L668 210L673 223L676 226V235L679 238L677 250L675 255L667 265L666 268L661 271L656 270L642 261L637 257L634 252L629 247L628 246L627 237L624 232L622 223L619 219L616 218L614 222L608 223L600 230L591 236L577 243L564 248L557 250H537L534 245L532 240L528 238L526 236L527 229L530 224L534 219L542 215L550 211L556 210L562 207L572 205L580 197L586 193L594 187L599 182L601 181L600 177L590 166L581 161L567 152L556 149H550L547 152H545L543 157L538 165L531 187L528 192L524 200L521 211L513 227L504 239L494 245L491 247L486 246L476 241L469 234L467 230L466 215L475 208L481 197H483L485 193L490 188L497 178L502 170L503 163L506 158L500 157L491 151L485 144L480 139L477 136L478 131L482 121L496 114L504 111L521 105L538 95L548 87L551 79L556 72L559 65L564 55L567 48L573 40L575 30L584 19L588 17L597 15ZM659 80L656 81V83L651 84L648 85L635 86L632 89V91H630L628 96L626 107L629 126L634 142H637L641 138L650 123L656 115L659 109L663 102L668 98L669 95V83L665 82L663 80H659ZM588 107.5L575.5 116L574 120L583.5 121L586 121.5L588 122L591 127L601 128V119L598 116L600 111.5V109.5L597 107.5H588Z" fill="white"/>
</svg>
