<svg width="1070" height="374" viewBox="0 0 1070 374" fill="none" xmlns="http://www.w3.org/2000/svg">
<path d="M647.85 11.9122L658.836 12.4582L666.479 19.8467L668.328 22.9422L668.731 34.9771L672.23 45.1633L672.285 64.1895L674.686 76.3236L675.585 78.3708L690.368 83.1104L698.16 87.5025L710.548 100.133L718.191 107.521L722.788 115.76L725.486 121.901L724.792 135.884L721.547 140.729L715.455 142.429L710.064 150.171L704.822 154.916L689.096 169.153L682.955 171.852L677.663 177.596L676.366 183.539L677.216 186.585L676.819 194.575L680.368 203.763L681.069 209.805L681.472 221.84L680.423 222.789L680.076 229.78L680.926 232.826L680.479 241.815L678.134 248.707L677.086 249.656L676.689 257.647L674.393 263.54L663.01 270.984L659.914 272.833L656.521 280.674L655.472 281.623L649.48 281.325L644.734 276.083L639.139 267.795L635.491 260.605L634.79 254.563L635.727 215.562L635.926 211.566L627.886 212.168L621.695 215.865L615.454 220.561L613.456 220.462L613.357 222.46L608.115 227.205L602.823 232.95L597.581 237.695L590.193 245.338L585.702 255.127L580.36 261.871L577.066 267.714L575.069 267.615L575.621 276.653L565.236 284.147L560.143 285.897L549.808 292.392L543.914 290.096L534.423 279.612L531.824 271.473L523.629 255.046L523.927 249.054L529.318 241.312L531.613 235.418L533.207 223.483L546.185 204.103L548.481 198.21L550.478 198.309L553.921 189.469L560.361 180.778L567.048 167.093L571.44 159.301L573.587 156.404L572.737 153.358L566.496 158.054L556.211 163.551L552.067 166.348L543.878 169.946L537.687 173.644L522.407 178.892L513.071 185.436L503.784 190.982L491.601 194.382L480.267 200.827L470.031 205.325L460.744 210.871L452.407 217.465L444.069 224.059L427.841 228.259L417.654 231.758L407.915 226.267L402.27 218.978L399.422 215.833L397.673 210.74L398.02 203.749L404.46 195.057L415.843 187.613L424.28 179.021L432.568 173.426L443.753 169.977L458.133 162.682L473.561 154.437L477.705 151.639L487.941 147.142L497.228 141.596L505.416 137.998L509.56 135.2L520.844 129.754L535.274 121.46L552.749 112.316L567.929 109.065L584.859 110.908L596.342 101.466L600.734 93.6744L604.177 84.8344L610.517 78.1409L615.207 64.3567L619.698 54.5675L628.433 39.9831L632.025 28.1468L637.465 19.406L641.708 14.6107L647.85 11.9122ZM677.843 113.526L676.795 114.475L676.702 136.498L681.795 134.748L685.089 128.905L686.485 120.964L684.735 115.871L682.837 113.774L677.843 113.526ZM620.721 134.717L612.384 141.311L601.304 162.788L597.11 166.584L596.961 169.581L599.908 170.728L598.661 175.673L593.022 188.408L588.779 193.204L585.336 202.044L585.187 205.04L589.232 204.24L595.572 197.546L599.964 189.755L607.203 185.108L614.592 177.466L614.691 175.468L618.785 173.669L629.121 167.174L630.318 163.229L630.064 148.197L629.561 138.16L625.715 134.965L620.721 134.717Z" fill="white"/>
<path d="M938.46 290.415L930.59 288.667L924.898 285.117L921.198 281.754L916.502 278.298L912.989 272.944L910.698 254.648L904.537 256.075L895.201 259.212L886.672 264.434L867.568 264.64L852.541 264.226L846.136 257.595L841.627 252.147L836.03 247.601L827.258 244.764L821.416 232.16L822.693 229.267L824.779 228.459L827.897 216.7L834.191 203.232L841.723 197.916L847.547 189.426L849.914 185.631L854.084 184.016L857.635 178.324L863.082 173.816L865.073 174.004L865.261 172.013L868.248 172.295L870.709 167.505L877.528 159.109L881.698 157.493L887.146 152.985L890.79 146.298L901.498 139.273L902.775 136.38L908.035 133.863L910.026 134.051L912.769 126.275L913.709 116.319L910.196 110.965L901.612 106.137L892.933 102.305L887.806 92.7809L884.669 83.4448L883.148 78.279L884.895 70.4084L888.257 66.708L891.996 59.0252L896.542 53.4276L902.985 49.0135L911.945 49.8591L923.328 56.9601L938.506 66.428L942.112 70.7862L942.638 75.858L948.8 74.4306L951.636 65.6584L966.232 60.0048L975.098 61.846L982.593 67.5755L990.614 78.3769L990.294 92.4089L986.931 96.1094L984.283 102.89L979.83 107.493L978.891 117.448L976.9 117.26L977.088 115.269L975.096 115.081L977.519 121.337L977.332 123.328L987.663 120.285L991.927 117.674L1001.17 115.533L1010.69 110.405L1017.57 112.059L1019.32 104.188L1026.04 96.787L1028.03 96.975L1030.59 91.1894L1034.04 86.4934L1044.19 85.4418L1051.06 87.0951L1058.46 93.8203L1063.78 101.353L1065.02 109.506L1063.46 115.385L1061 120.175L1058.07 129.943L1054.61 134.639L1048.17 139.053L1046.18 138.865L1044.52 145.74L1039.08 150.248L1037.08 150.06L1036.43 157.029L1029.51 166.421L1025.96 172.113L1022.69 174.818L1019.71 174.536L1017.06 181.317L1014.88 183.12L1016.78 184.304L1014.32 189.094L1009.77 194.691L1007.78 194.503L1008.49 197.584L998.217 210.677L994.854 214.377L995.098 222.436L988.937 223.863L985.48 228.559L983.639 237.425L978.003 243.924L975.017 243.643L975.448 249.71L971.184 252.321L967.634 258.012L966.168 262.896L962.9 265.601L960.627 268.4L959.161 273.284L956.7 278.074L951.347 281.586L948.886 286.376L938.46 290.415ZM886.166 227.222L894.507 223.991L904.031 218.863L909.197 217.342L914.025 208.757L917.501 171.921L909.968 177.237L901.872 188.526L896.518 192.039L891.972 197.636L884.251 204.943L883.068 206.84L881.884 208.737L880.701 210.635L876.343 214.241L873.882 219.031L873.412 224.009L881.189 226.752L886.166 227.222ZM960.828 170.486L966.322 165.48L967.384 159.553L963.589 157.186L951.642 156.059L950.468 168.504L952.252 176.205L956.235 176.581L960.828 170.486Z" fill="white"/>
<path d="M34.574 248.795L31.7773 240.24L32.7643 233.605L35.963 227.299L41.3734 221.322L58.8113 213.516L65.154 210.391L59.195 201.818L51.993 189.443L48.8855 179.938L44.1878 172.006L39.5266 157.748L40.221 147L44.3885 137.221L46.9475 132.176L48.8484 131.555L48.2269 129.654L49.8172 128.082L59.3221 124.974L65.0068 126.272L77.9847 124.133L91.5841 123.895L95.3678 125.815L104.854 125.869L111.161 129.068L113.043 131.609L118.417 131.956L129.458 136.763L140.845 136.196L145.251 140.017L148.395 143.197L152.818 143.855L160.715 145.482L167.021 148.68L174.296 148.406L184.148 139.925L191.167 129.213L197.857 120.714L208.659 111.921L210.579 108.138L219.133 105.341L221.052 101.557L233.08 99.7292L238.454 100.076L250.445 104.573L253.607 104.591L258.012 108.411L258.615 113.475L254.411 129.578L252.163 135.574L248.343 139.979L245.144 146.285L244.504 147.546L236.261 151.294L232.441 155.699L224.508 160.397L221.638 164.491L221.62 167.653L226.043 168.311L228.858 173.703L237.998 179.132L246.497 185.822L257.501 196.954L266.293 207.756L270.37 213.788L276.585 232.798L272.764 237.203L268.633 240.658L267.975 245.082L266.696 247.604L259.732 248.829L254.047 247.531L248.052 245.283L241.764 238.922L235.476 232.561L232.661 227.169L227.945 222.398L222.936 213.515L212.846 208.397L207.18 203.937L198.991 198.197L192.685 194.999L191.113 193.408L187.621 195.602L180.274 208.525L178.318 218.633L174.114 234.737L174.681 246.124L176.545 251.827L180.329 253.747L180.95 255.648L186.324 255.995L195.482 258.261L218.568 258.078L224.253 259.376L233.1 260.692L244.487 260.125L262.181 262.757L276.384 267.583L285.194 275.223L288.028 277.453L288.631 282.516L286.986 293.575L282.508 302.404L279.327 305.548L265.381 311.159L255.93 304.78L243.61 302.495L242.989 300.594L238.566 299.936L232.259 296.738L220.579 293.192L211.421 290.925L204.457 292.15L198.773 290.852L199.687 296.866L196.78 307.285L191.991 315.163L188.793 321.469L186.873 325.253L181.81 325.856L171.062 325.162L160.058 314.03L154.721 307.359L143.735 293.065L128.948 280.014L118.236 272.995L109.7 272.629L101.493 270.052L93.9071 269.376L82.8484 267.731L75.2628 267.055L65.7943 263.838L55.6679 265.044L42.4158 259.908L39.2718 256.728L34.574 248.795ZM77.0895 169.665L78.9723 172.206L80.8733 171.585L83.3775 176.026L85.2602 178.567L90.2505 190.613L94.0342 192.532L95.9352 191.911L96.5567 193.812L101.931 194.159L113.008 192.641L130.135 183.886L143.789 174.161L142.857 171.31L137.812 168.751L120.757 164.858L111.289 161.641L104.654 160.654L96.7574 159.027L91.4017 155.518L88.2394 155.499L76.8335 159.228L77.126 163.341L75.8465 165.864L77.0895 169.665ZM125.291 228.605L137.255 237.845L141.523 238.027L139.521 228.687L139.22 226.155L139.073 224.099L142.894 219.694L140.737 209.878L132.182 212.675L130.263 216.459L125.364 215.956L123.463 216.577L122.495 220.05L125.291 228.605Z" fill="white"/>
</svg>
