<svg width="1016" height="304" viewBox="0 0 1016 304" fill="none" xmlns="http://www.w3.org/2000/svg">
<path d="M933 0H944L952 7L954 10L955 22L959 32L960 51L963 63L964 65L979 69L987 73L1000 85L1008 92L1013 100L1016 106V120L1013 125L1007 127L1002 135L997 140L982 155L976 158L971 164L970 170L971 173V181L975 190L976 196L977 208L976 209V216L977 219V228L975 235L974 236V244L972 250L961 258L958 260L955 268L954 269H948L943 264L937 256L933 249L932 243L931 204V200L923 201L917 205L911 210H909V212L904 217L899 223L894 228L887 236L883 246L878 253L875 259H873L874 268L864 276L859 278L849 285L843 283L833 273L830 265L821 249V243L826 235L828 229L829 217L841 197L843 191H845L848 182L854 173L860 159L864 151L866 148L865 145L859 150L849 156L845 159L837 163L831 167L816 173L807 180L798 186L786 190L775 197L765 202L756 208L748 215L740 222L724 227L714 231L704 226L698 219L695 216L693 211V204L699 195L710 187L718 178L726 172L737 168L751 160L766 151L770 148L780 143L789 137L797 133L801 130L812 124L826 115L843 105L858 101L875 102L886 92L890 84L893 75L899 68L903 54L907 44L915 29L918 17L923 8L927 3L933 0ZM968 100L967 101L968 123L973 121L976 115L977 107L975 102L973 100H968ZM912 124L904 131L894 153L890 157V160L893 161L892 166L887 179L883 184L880 193V196L884 195L890 188L894 180L901 175L908 167V165L912 163L922 156L923 152L922 137L921 127L917 124H912Z" fill="white"/>
<path d="M515 26L523 27L529 30L533 33L538 36L542 41L546 59L552 57L561 53L569 47L588 45L603 44L610 50L615 55L621 59L630 61L637 73L636 76L634 77L632 89L627 103L620 109L615 118L613 122L609 124L606 130L601 135H599V137H596L594 142L588 151L584 153L579 158L576 165L566 173L565 176L560 179H558L556 187V197L560 202L569 206L578 209L584 218L588 227L590 232L589 240L586 244L583 252L579 258L573 263H564L552 257L536 249L532 245L531 240L525 242L523 251L509 258L500 257L492 252L483 242L482 228L485 224L487 217L491 212V202H493V204H495L492 198V196L482 200L478 203L469 206L460 212L453 211L452 219L446 227H444L442 233L439 238L429 240L422 239L414 233L408 226L406 218L407 212L409 207L411 197L414 192L420 187H422L423 180L428 175H430V168L436 158L439 152L442 149H445L447 142L449 140L447 139L449 134L453 128H455L454 125L463 111L466 107L465 99L471 97L474 92L475 83L480 76H483L482 70L486 67L489 61L490 56L493 53L495 50L496 45L498 40L503 36L505 31L515 26ZM573 84L565 88L556 94L551 96L547 105V142L554 136L561 124L566 120L570 114L577 106L578 104L579 102L580 100L584 96L586 91V86L578 84H573ZM504 147.5L499 153L498.5 159L502.5 161H514.5V148.5L512 141H508L504 147.5Z" fill="white"/>
<path d="M131 48H140L146 51L151 56L155 63L157 82L158 89L168 86L182 83H192L201 81H216L226 85L234 92L238 96V98H240L241 100V110L238 115L236 128L232 141L229 144L226 153L221 158L218 159L216 164L208 173L205 184L200 187L196 189L194 193L190 200L185 205L183 212L188 224L196 234L202 243L207 256L210 259V268L213 271L211 283L209 288L201 298L200 301L195 304L190 303L176 294L171 290L168 285L163 280L162 279L161 270L158 265L156 256L153 252L150 251L148 255L142 256L134 263L125 269L111 276L98 281L91 283H71L68 278L66 273L62 271L60 269L61 262L64 257L68 252L76 248L84 244L90 243L96 240L106 238L114 230L120 226L128 220L133 215L135 214L134 210L124 199L115 194L101 185L90 182H84L81 185H79L77 190L72 198L65 220L62 225L58 233L55 244L47 260L38 272L28 278L25 280L20 279L10 274L3 267L1 263L0 248L9 241L15 230H17L19 226L24 221L31 211L36 203L37 196L40 191L34 190L25 184L19 177L14 172L11 169L12 164L16 154L30 147L38 144L55 138L72 128L82 120L85 112L90 105L93 98L98 88L101 81L107 73L109 63L118 52L122 50L131 48ZM193 113L190 114V116L185 117L182 118L169 119L166 122V124H164L162 129L160 140L163 159L168 175H171L175 171L184 156L190 148L193 142L197 135L202 131L203 128V116L199 115L197 113H193ZM122 140.5L109.5 149L108 153L117.5 154L120 154.5L122 155L125 160L135 161V152L132 149L134 144.5V142.5L131 140.5H122Z" fill="white"/>
</svg>
